<svg width="110.000000" height="84.000000" viewBox="0 0 110 84" fill="none" xmlns="http://www.w3.org/2000/svg" xmlns:xlink="http://www.w3.org/1999/xlink">
	<desc>
			Created with Pixso.
	</desc>
	<defs>
		<clipPath id="clip1203_16749">
			<rect id="Asset 6" width="110.000000" height="84.525002" transform="translate(0.000000 -0.600098)" fill="white" fill-opacity="0"/>
		</clipPath>
	</defs>
	<rect id="Asset 6" width="110.000000" height="84.525002" transform="translate(0.000000 -0.600098)" fill="#FFFFFF" fill-opacity="0"/>
	<g clip-path="url(#clip1203_16749)">
		<path id="Vector" d="M106.62 74.74C106.48 74.51 106.3 74.3 106.08 74.14C106.91 73.52 107 72.31 106.08 71C105.65 70.37 105.11 69.83 104.48 69.41C105.03 69.05 105.46 68.53 105.71 67.93C105.85 67.55 105.91 67.16 105.88 66.76C105.86 66.37 105.75 65.98 105.57 65.63C105.39 65.28 105.14 64.97 104.84 64.72C104.54 64.47 104.19 64.29 103.81 64.18C105.22 63.43 105.62 62.35 104.79 61.56C103 60.51 100.88 60.21 98.87 60.74L98.67 60.56C98.79 60.44 98.9 60.31 99 60.17C99.27 59.84 99.46 59.43 99.53 59C99.6 58.57 99.57 58.13 99.42 57.71C99.28 57.3 99.03 56.93 98.71 56.64C98.38 56.36 97.99 56.15 97.57 56.06C97.17 55.93 96.75 55.85 96.33 55.82C95.12 54.39 93.46 53.42 91.62 53.08C90.52 52.76 89.4 52.56 88.26 52.5C88.22 52.29 88.16 52.09 88.08 51.89C87.63 50.94 86.94 50.13 86.07 49.55C85.2 48.97 84.19 48.64 83.14 48.6C82.97 48.59 82.79 48.59 82.62 48.6C80.87 47.48 78.81 46.95 76.74 47.1C76.03 47.11 75.33 47.19 74.63 47.32C74.64 47.25 74.64 47.18 74.63 47.1C74.61 46.11 74.23 45.16 73.56 44.43C72.9 43.7 71.99 43.24 71.01 43.14C70.5 43.04 69.99 43.04 69.48 43.14C67.55 41.96 65.3 41.44 63.06 41.66C62.07 41.69 61.1 41.86 60.16 42.15C59.62 41.25 58.86 40.5 57.95 39.97C57.04 39.44 56.02 39.15 54.97 39.13C54.43 39.09 53.9 39.25 53.49 39.59C53.07 39.93 52.8 40.43 52.74 40.96C52.69 40.86 52.63 40.75 52.57 40.65C51.98 39.75 51.17 39 50.22 38.49C49.27 37.98 48.21 37.72 47.13 37.73C46.66 37.75 46.21 37.91 45.84 38.2C44.12 37.49 42.25 37.22 40.4 37.42C39.44 37.49 38.49 37.71 37.61 38.09C37 37.29 36.23 36.64 35.34 36.18C34.45 35.73 33.47 35.49 32.47 35.48C32.12 35.45 31.76 35.52 31.44 35.68C31.12 35.83 30.84 36.07 30.63 36.36C30.43 36.66 30.3 37 30.27 37.36C30.24 37.71 30.29 38.08 30.44 38.4C29.65 37.56 28.69 36.91 27.63 36.48C26.56 36.05 25.42 35.86 24.27 35.92C23.98 35.96 23.71 36.08 23.48 36.25C23.24 36.42 23.05 36.65 22.92 36.91C22.79 37.17 22.73 37.46 22.73 37.75C22.74 38.04 22.81 38.33 22.95 38.59C22.04 37.81 20.98 37.23 19.84 36.9C18.7 36.57 17.5 36.48 16.32 36.65C14.71 37.11 14.78 38.73 16.41 40.4L15.72 40.18C12.7 39.34 9.68 39.61 9.16 40.58C8.96 41.02 9.16 41.51 9.68 42C8.86 41.73 7.98 41.67 7.12 41.82C5.31 42.24 5.42 43.96 7.12 45.7C6.63 45.84 6.16 46.09 5.77 46.42C5.37 46.76 5.04 47.17 4.8 47.63C4.55 48.16 4.48 48.75 4.59 49.31C4.71 49.88 5 50.4 5.44 50.78C4.08 51 3.17 51.47 3.17 52.15C3.17 52.83 4.73 54.07 6.98 54.69C6 54.8 5.27 55.09 5.04 55.57C4.49 56.65 6.63 58.26 9.83 59.13L10.43 59.28C9.94 59.54 9.63 59.85 9.63 60.23C9.63 61.45 12.33 62.81 15.67 63.25C14.98 63.56 14.6 63.96 14.67 64.45C14.85 65.64 17.61 66.83 20.82 67.07C21.31 67.09 21.79 67.09 22.27 67.07C21.28 67.89 21.13 68.89 22.08 69.63C23.84 70.6 25.91 70.84 27.84 70.3C29.24 71.73 31.12 72.61 33.11 72.75C34.17 72.94 35.25 73.01 36.33 72.95C36.33 73.08 36.33 73.21 36.44 73.35C36.89 74.4 37.62 75.29 38.56 75.93C39.5 76.56 40.6 76.9 41.72 76.92C42.46 76.94 43.17 76.67 43.72 76.17C43.83 76.34 43.95 76.5 44.08 76.64C44.79 77.48 45.67 78.14 46.67 78.59C47.66 79.03 48.75 79.23 49.83 79.19C50.21 79.13 50.57 78.97 50.87 78.73C51.01 79.04 51.21 79.32 51.46 79.55C51.71 79.78 52 79.95 52.32 80.06C53.09 80.33 53.91 80.42 54.72 80.34C55.53 80.26 56.31 80 57.02 79.59C57.08 79.79 57.19 79.96 57.34 80.1C58.43 81.23 61.54 81.67 64.26 81.05C64.83 80.92 65.39 80.73 65.93 80.48C66.2 81.41 66.74 82.23 67.49 82.84C68.23 83.45 69.14 83.82 70.1 83.9C70.7 84 71.31 83.93 71.87 83.69C72.44 83.45 72.92 83.07 73.27 82.57C73.59 83.04 74.05 83.4 74.58 83.59C75.57 83.94 76.63 84.01 77.66 83.8C78.69 83.59 79.64 83.11 80.42 82.4C80.75 82.8 81.16 83.11 81.64 83.3C82.67 83.66 83.79 83.73 84.86 83.51C85.93 83.29 86.92 82.78 87.73 82.04C88.02 82.34 88.37 82.58 88.75 82.75C89.76 83.11 90.84 83.2 91.9 83.01C92.95 82.81 93.94 82.35 94.75 81.65C95.02 81.43 95.25 81.15 95.41 80.83C95.57 80.52 95.67 80.18 95.7 79.83C98 80.68 100.33 80.85 101.25 80.15C102.18 79.46 101.43 78.33 99.78 77.17C100.52 77.23 101.27 77.23 102.01 77.17C105.22 77.06 107.24 75.97 106.62 74.74Z" fill="#B8B5AA" fill-opacity="1.000000" fill-rule="nonzero"/>
		<path id="Vector" d="M108.85 49.12C108.7 48.77 108.48 48.47 108.2 48.22C108.56 47.3 108.7 46.31 108.62 45.32C108.53 44.33 108.22 43.38 107.71 42.54C107.25 41.64 106.64 40.84 105.89 40.18C106.41 39.23 106.74 38.2 106.86 37.12C107.18 34.2 106.06 31.64 104.3 31.02C104.92 30.35 105.3 29.5 105.39 28.59C105.49 27.68 105.28 26.77 104.81 25.99C103.59 24.6 101.03 24.86 98.84 26.47L98.6 26.19C98.69 25.94 98.78 25.68 98.86 25.43C99.73 22.15 98.73 19.06 96.64 18.5C96.23 18.4 95.8 18.4 95.39 18.5C94.85 17.55 94.08 16.75 93.17 16.16C92.25 15.57 91.21 15.21 90.13 15.12C89.01 14.88 87.85 14.88 86.74 15.12C86.67 14.77 86.57 14.42 86.45 14.09C85.39 11.04 82.94 9.14 81 9.81C80.83 9.88 80.66 9.98 80.51 10.09C79.66 9.4 78.63 8.97 77.54 8.85C76.46 8.73 75.36 8.92 74.38 9.41C73.66 9.68 72.98 10.04 72.37 10.49C72.36 10.36 72.36 10.22 72.37 10.09C72.22 6.71 70.28 4.04 68.1 4.17C67.56 4.2 67.05 4.4 66.62 4.73C65.68 4.03 64.56 3.61 63.39 3.52C62.23 3.43 61.06 3.68 60.03 4.24C59 4.66 58.05 5.28 57.25 6.07C55.97 3.23 53.48 1.57 51.61 2.41C50.92 2.83 50.38 3.45 50.05 4.19C49.73 4.93 49.64 5.75 49.8 6.54C49.8 6.38 49.67 6.21 49.58 6.05C48.15 3.2 45.51 1.64 43.68 2.58C43.17 2.86 42.76 3.31 42.52 3.86C41.62 3.5 40.65 3.36 39.68 3.44C38.72 3.51 37.78 3.81 36.95 4.31C35.92 4.8 35.01 5.51 34.29 6.4C32.83 3.93 30.51 2.61 28.84 3.4C27.17 4.18 26.48 6.71 27.21 9.36C25.27 6.82 22.42 5.7 20.71 6.93C19.35 7.9 19.1 10 19.95 12.19C17.72 9.92 14.78 9.17 13.24 10.58C11.7 11.99 12.1 14.88 13.98 17.31L13.28 17.16C10.06 16.67 7.2 17.99 6.87 20.07C6.82 20.5 6.87 20.93 7 21.34C7.14 21.75 7.36 22.13 7.65 22.45C7.21 22.34 6.76 22.34 6.31 22.43C5.87 22.52 5.46 22.71 5.09 22.98C3.48 24.31 3.8 27.4 5.78 29.94C4.7 31.1 4 32.56 3.77 34.13C3.58 35.08 3.6 36.05 3.81 37C4.02 37.94 4.42 38.83 4.98 39.61C4.39 39.91 3.89 40.37 3.54 40.95C3.18 41.52 2.99 42.17 2.99 42.85C3.13 44.51 4.8 45.77 7.2 46.12C6.74 46.32 6.34 46.63 6.03 47.02C5.71 47.41 5.49 47.86 5.38 48.35C5.11 50.58 7.51 52.68 10.88 53.21L11.5 53.21C11.05 53.79 10.83 54.52 10.88 55.26C11.1 57.45 14 58.91 17.38 58.66C17.08 58.99 16.86 59.39 16.73 59.82C16.59 60.25 16.56 60.7 16.61 61.14C17.01 63.25 19.93 64.43 23.14 63.83C23.63 63.73 24.11 63.59 24.58 63.41C24.13 64.12 23.92 64.96 23.97 65.79C24.02 66.63 24.33 67.44 24.85 68.09C26.14 69.35 28.48 68.99 30.64 67.4C31.24 68.32 32.09 69.06 33.09 69.52C34.08 69.99 35.19 70.16 36.28 70.03C37.39 70.01 38.48 69.76 39.49 69.31C39.49 69.53 39.6 69.77 39.67 70.01C40.71 73.25 43.3 75.31 45.3 74.63C45.75 74.45 46.15 74.16 46.47 73.79C46.8 73.42 47.03 72.99 47.17 72.51C47.3 72.78 47.44 73.03 47.6 73.28C49.42 75.86 52.06 77.03 53.72 75.91C54.13 75.63 54.45 75.23 54.64 74.76C54.78 75.17 55 75.55 55.29 75.86C55.58 76.18 55.93 76.43 56.33 76.59C57.82 77.14 59.63 76.08 60.85 74.16C60.93 74.46 61.07 74.75 61.26 75C62.55 76.66 65.67 76.39 68.23 74.4C68.81 73.94 69.32 73.41 69.77 72.82C70.48 75.8 72.48 77.91 74.49 77.6C75.23 77.38 75.89 76.97 76.4 76.39C76.91 75.81 77.25 75.1 77.37 74.34C77.68 74.98 78.2 75.49 78.84 75.77C80.77 76.5 83.25 74.67 84.29 71.67C84.59 72.22 85.07 72.64 85.65 72.86C87.64 73.63 90.22 71.73 91.4 68.6C91.68 69.01 92.07 69.33 92.52 69.53C94.34 70.32 96.99 68.55 98.22 65.57C98.69 64.44 98.91 63.22 98.84 62C101.25 62.79 103.57 62.33 104.28 60.76C104.99 59.19 104.12 57.34 102.3 55.9L102.3 55.79C103.06 55.68 103.8 55.48 104.5 55.18C107.8 53.74 109.61 51.09 108.85 49.12Z" fill="#ECE2AC" fill-opacity="1.000000" fill-rule="nonzero"/>
		<path id="Vector" d="M87.21 32.86C87.32 32.64 87.43 32.41 87.52 32.17C88.62 29.23 87.99 26.23 86.1 25.52C85.58 25.36 85.03 25.33 84.5 25.44C83.96 25.56 83.47 25.8 83.05 26.16C83.91 23.56 83.34 21.02 81.66 20.31C81.25 20.16 80.81 20.11 80.38 20.17C79.95 20.22 79.54 20.36 79.17 20.6C78.53 19.11 77.36 17.92 75.89 17.25C75.1 16.86 74.25 16.61 73.38 16.5C73.51 15.98 73.46 15.43 73.26 14.93C72.48 13.1 69.52 12.52 66.63 13.73C66.04 13.98 65.47 14.31 64.95 14.69C64.8 14.14 64.58 13.6 64.31 13.09C62.82 10.36 60.3 8.95 58.6 9.87C58.6 9.78 58.6 9.7 58.6 9.61C58.3 8.94 57.75 8.42 57.07 8.15C56.86 7.78 56.57 7.46 56.22 7.22C55.87 6.98 55.48 6.81 55.06 6.74C54.5 6.73 53.96 6.85 53.47 7.11C52.98 7.37 52.56 7.76 52.26 8.22L51.85 8.37C50.87 8.78 49.98 9.37 49.22 10.11C48 7.42 45.59 5.85 43.9 6.6C43.23 6.98 42.7 7.57 42.38 8.27C42.05 8.98 41.95 9.76 42.09 10.53C42.09 10.36 41.96 10.2 41.89 10.05C40.53 7.36 38.04 5.88 36.32 6.76C35.71 7.11 35.26 7.67 35.05 8.33C34.22 8.06 33.35 7.97 32.48 8.05C31.61 8.14 30.78 8.41 30.02 8.85C28.83 9.43 27.82 10.34 27.12 11.48C26.66 10.75 25.98 10.2 25.18 9.89C24.39 9.58 23.51 9.53 22.69 9.76C21.04 10.53 20.51 13.01 21.35 15.59C19.53 13.07 16.74 11.93 15.07 13.14C13.4 14.35 13.51 17.27 15.2 19.87C14.57 19.43 13.82 19.19 13.06 19.19C12.29 19.19 11.54 19.43 10.92 19.87C9.37 21.26 9.86 24.31 12 26.7L12.35 27.05C9.45 26.72 6.91 27.93 6.65 29.83C6.42 31.35 7.69 32.86 9.65 33.71C8.38 35.1 8.76 37.87 10.61 40.16C11.28 41 12.12 41.69 13.06 42.21C12.9 42.67 12.79 43.15 12.71 43.63C12.28 46.74 13.55 49.5 15.54 49.77C15.67 49.78 15.8 49.78 15.92 49.77C16.14 51.69 18.61 53.05 21.55 52.88C21.44 54.84 23.62 56.74 26.59 57.21C27.19 57.31 27.8 57.34 28.41 57.3C29.13 58.93 31.54 59.97 34.3 59.72C34.66 59.68 35.01 59.62 35.36 59.53C35.83 61.36 38.51 62.48 41.45 61.91C42.02 61.8 42.58 61.63 43.12 61.4C43.06 61.85 43.1 62.31 43.23 62.74C43.37 63.17 43.59 63.57 43.9 63.9C45.37 65.29 48.29 64.58 50.43 62.31L50.63 62.08C51.91 63.05 53.49 63.54 55.09 63.45C56.53 63.45 57.93 63 59.1 62.17C60.23 64.62 62.3 66.08 64.02 65.51C65.74 64.95 66.56 62.55 66.05 59.88L66.29 60.3C67.92 62.73 70.52 63.85 72.08 62.79C72.49 62.46 72.81 62.04 73.01 61.55C73.2 61.06 73.27 60.53 73.2 60.01C73.41 60.2 73.65 60.34 73.91 60.45C75.72 61.11 77.95 59.37 78.97 56.59C79.1 56.23 79.2 55.87 79.28 55.5C80.71 55.37 82.07 54.84 83.22 53.97C84.36 53.1 85.24 51.93 85.76 50.58C87.7 50.12 88.88 47.38 88.4 44.27C88.25 43.27 87.9 42.31 87.39 41.44C87.88 40.81 88.28 40.1 88.57 39.35C89.64 36.43 89.04 33.56 87.21 32.86Z" fill="#FCFBE6" fill-opacity="1.000000" fill-rule="nonzero"/>
		<path id="Vector" d="M54.22 45.79C55.73 40.31 49.49 33.83 40.31 31.27C31.13 28.72 22.46 31.04 20.95 36.48C19.44 41.93 25.68 48.44 34.87 51C44.05 53.56 52.72 51.24 54.22 45.79Z" fill="#FFFFFF" fill-opacity="1.000000" fill-rule="nonzero"/>
		<path id="Vector" d="M0 21.82C3.39 12.68 15.83 3.54 23.58 1.02C38.64 0.47 86.21 -0.81 109.6 18.84C110.25 28.75 109.83 29.36 109.6 31.64C104.93 32.87 89.44 35.21 79.04 49.43C64.82 43.61 21.53 29.98 1.45 34.6C0.49 28.51 0 21.82 0 21.82Z" fill="#FDE471" fill-opacity="1.000000" fill-rule="nonzero"/>
		<path id="Vector" d="M79.1 49.46C81.26 46.52 83.8 43.88 86.66 41.62C85.27 39.17 82.16 36.45 76.43 33.38C53.7 21.2 10.88 19.96 0 21.82C0 21.82 0.49 28.51 1.45 34.62C21.53 29.98 64.82 43.61 79.1 49.46Z" fill="#FDD459" fill-opacity="1.000000" fill-rule="nonzero"/>
		<path id="Vector" d="M109.65 31.68C109.89 29.36 110.3 28.75 109.65 18.88C95.44 17.05 80.31 29.28 76.43 33.5C79.33 38.88 79.1 49.59 79.1 49.59C89.49 35.24 104.99 32.9 109.65 31.68Z" fill="#FDBB42" fill-opacity="1.000000" fill-rule="nonzero"/>
		<path id="Vector" d="M95.32 15.74C99.65 14.38 84.9 6.07 70.75 4.26C56.6 2.45 44.7 4.64 44.14 9.16C43.57 13.67 48.64 15.04 60.96 22.28C82.09 34.67 69.72 23.63 95.32 15.74Z" fill="#FFEE99" fill-opacity="1.000000" fill-rule="nonzero"/>
		<path id="Vector" d="M29.53 0.84L32.11 0.84L29.53 0.84Z" fill="#FDBB42" fill-opacity="1.000000" fill-rule="nonzero"/>
		<path id="Vector" d="M109.65 18.84C90.93 3.05 56.73 0.8 36.1 0.78C59.49 0.8 90.71 3.85 108.24 18.11C108.66 21.76 108.69 25.43 108.33 29.08L107.69 29.25C101.83 30.6 88.3 33.74 78.66 46.28C65.69 41.15 32.8 30.8 11.23 30.8C8.37 30.77 5.52 30.99 2.7 31.46C2.03 26.7 1.63 21.9 1.52 20.64C4.89 11.84 16.69 3.38 23.89 1L29.17 0.86C27.05 0.86 25.16 0.97 23.73 1.02C15.83 3.51 3.39 12.67 0 21.82C0 21.82 0.49 28.51 1.45 34.62C21.53 30 64.82 43.63 79.1 49.48C89.49 35.26 104.99 32.92 109.65 31.69C109.89 29.36 110.3 28.75 109.65 18.84Z" fill="#FDBB42" fill-opacity="1.000000" fill-rule="nonzero"/>
		<path id="Vector" d="M91 29.32C90.98 28.96 90.86 28.62 90.65 28.33C90.44 28.04 90.15 27.82 89.82 27.7C89.49 27.57 89.12 27.55 88.78 27.63C88.43 27.71 88.12 27.89 87.87 28.15C87.63 28.41 87.46 28.73 87.4 29.09C87.34 29.44 87.38 29.8 87.52 30.13C87.66 30.46 87.89 30.74 88.19 30.93C88.48 31.13 88.83 31.24 89.19 31.24C89.43 31.24 89.67 31.19 89.9 31.09C90.13 30.99 90.33 30.85 90.5 30.67C90.67 30.49 90.8 30.28 90.89 30.05C90.97 29.81 91.01 29.57 91 29.32Z" fill="#FDE471" fill-opacity="1.000000" fill-rule="nonzero"/>
		<path id="Vector" d="M57.25 34.13C57.25 33.79 57.12 33.46 56.88 33.22C56.64 32.98 56.32 32.85 55.98 32.85C55.65 32.85 55.32 32.98 55.09 33.22C54.85 33.46 54.71 33.79 54.71 34.13C54.71 34.47 54.85 34.79 55.09 35.03C55.32 35.27 55.65 35.41 55.98 35.41C56.32 35.41 56.64 35.27 56.88 35.03C57.12 34.79 57.25 34.47 57.25 34.13Z" fill="#FDE471" fill-opacity="1.000000" fill-rule="nonzero"/>
		<path id="Vector" d="M18.37 25.48C18.37 25.14 18.27 24.82 18.09 24.54C17.9 24.26 17.64 24.04 17.33 23.91C17.02 23.78 16.68 23.75 16.36 23.81C16.03 23.88 15.73 24.04 15.49 24.28C15.26 24.52 15.1 24.82 15.03 25.15C14.97 25.48 15 25.82 15.13 26.13C15.25 26.44 15.47 26.71 15.75 26.89C16.03 27.08 16.35 27.18 16.69 27.18C16.91 27.18 17.13 27.14 17.33 27.05C17.54 26.97 17.72 26.84 17.88 26.68C18.04 26.52 18.16 26.34 18.25 26.13C18.33 25.92 18.37 25.7 18.37 25.48Z" fill="#FDE471" fill-opacity="1.000000" fill-rule="nonzero"/>
		<path id="Vector" d="M66.82 33.16C66.82 32.74 66.69 32.34 66.46 31.99C66.23 31.64 65.91 31.37 65.53 31.22C65.15 31.06 64.73 31.02 64.32 31.1C63.92 31.18 63.55 31.38 63.25 31.67C62.96 31.97 62.76 32.34 62.68 32.75C62.6 33.16 62.64 33.58 62.8 33.96C62.96 34.35 63.23 34.67 63.57 34.91C63.91 35.14 64.32 35.26 64.73 35.26C65 35.26 65.28 35.21 65.53 35.1C65.78 35 66.02 34.85 66.21 34.65C66.4 34.45 66.56 34.22 66.66 33.97C66.77 33.71 66.82 33.43 66.82 33.16Z" fill="#FDE471" fill-opacity="1.000000" fill-rule="nonzero"/>
		<path id="Vector" d="M6.91 26.94C6.91 26.63 6.82 26.32 6.65 26.05C6.48 25.79 6.23 25.58 5.94 25.46C5.65 25.34 5.33 25.3 5.03 25.36C4.72 25.42 4.44 25.58 4.21 25.8C3.99 26.02 3.84 26.31 3.78 26.62C3.72 26.93 3.75 27.25 3.87 27.54C4 27.83 4.2 28.08 4.46 28.25C4.73 28.43 5.03 28.52 5.35 28.51C5.76 28.51 6.16 28.35 6.45 28.05C6.74 27.76 6.91 27.36 6.91 26.94Z" fill="#FDE471" fill-opacity="1.000000" fill-rule="nonzero"/>
		<path id="Vector" d="M13.58 14.79C13.58 14.24 13.02 13.69 12.13 13.53C11.24 13.36 10.46 13.67 10.32 14.2C10.17 14.73 10.88 15.32 11.77 15.46C12.66 15.61 13.48 15.32 13.58 14.79Z" fill="#FDE471" fill-opacity="1.000000" fill-rule="nonzero"/>
		<path id="Vector" d="M27.48 3.86C27.48 3.4 27.01 2.92 26.27 2.79C25.52 2.67 24.85 2.92 24.76 3.38C24.67 3.84 25.23 4.29 25.98 4.44C26.72 4.59 27.39 4.31 27.48 3.86Z" fill="#FDE471" fill-opacity="1.000000" fill-rule="nonzero"/>
		<path id="Vector" d="M27.57 12.37C27.66 11.9 27.08 11.39 26.28 11.24C25.49 11.09 24.74 11.37 24.65 11.86C24.56 12.36 25.16 12.85 25.96 13C26.76 13.14 27.5 12.87 27.57 12.37Z" fill="#FDE471" fill-opacity="1.000000" fill-rule="nonzero"/>
		<path id="Vector" d="M73.42 16.5C73.42 16.14 73.04 15.76 72.44 15.65C71.84 15.54 71.28 15.76 71.22 16.12C71.17 16.49 71.59 16.87 72.2 16.98C72.82 17.09 73.35 16.87 73.42 16.5Z" fill="#FDE471" fill-opacity="1.000000" fill-rule="nonzero"/>
		<path id="Vector" d="M33.38 5.61C33.38 5.34 33.11 5.04 32.63 4.97C32.16 4.9 31.76 4.97 31.73 5.32C31.69 5.66 32 5.88 32.47 5.98C32.94 6.07 33.34 5.88 33.38 5.61Z" fill="#FDE471" fill-opacity="1.000000" fill-rule="nonzero"/>
		<path id="Vector" d="M63.84 22.79C63.84 22.41 63.44 21.99 62.79 21.88C62.13 21.77 61.57 21.99 61.5 22.37C61.43 22.76 61.9 23.18 62.55 23.29C63.21 23.4 63.77 23.16 63.84 22.79Z" fill="#FDE471" fill-opacity="1.000000" fill-rule="nonzero"/>
		<path id="Vector" d="M89.95 13.2C89.95 12.9 89.66 12.61 89.19 12.52C88.71 12.43 88.3 12.52 88.24 12.89C88.19 13.25 88.53 13.47 89 13.56C89.48 13.65 89.91 13.47 89.95 13.2Z" fill="#FDE471" fill-opacity="1.000000" fill-rule="nonzero"/>
		<path id="Vector" d="M78.81 11.26C78.9 10.75 78.28 10.22 77.45 10.05C76.61 9.89 75.85 10.2 75.76 10.71C75.67 11.22 76.29 11.75 77.12 11.9C77.96 12.04 78.72 11.77 78.81 11.26Z" fill="#FDE471" fill-opacity="1.000000" fill-rule="nonzero"/>
		<path id="Vector" d="M76.72 25.44C76.81 24.84 76.1 24.22 75.11 24.04C74.11 23.85 73.29 24.2 73.13 24.8C72.97 25.41 73.75 26.03 74.74 26.21C75.74 26.39 76.61 26.05 76.72 25.44Z" fill="#FDE471" fill-opacity="1.000000" fill-rule="nonzero"/>
		<path id="Vector" d="M86.41 18.95C86.41 18.46 85.9 17.93 85.07 17.78C84.23 17.64 83.49 17.91 83.4 18.42C83.31 18.94 83.91 19.47 84.74 19.61C85.58 19.76 86.32 19.5 86.41 18.95Z" fill="#FDE471" fill-opacity="1.000000" fill-rule="nonzero"/>
		<path id="Vector" d="M74.74 39.96C74.74 39.52 74.62 39.1 74.38 38.74C74.14 38.38 73.8 38.1 73.4 37.93C73 37.77 72.56 37.72 72.14 37.81C71.72 37.89 71.33 38.1 71.03 38.41C70.72 38.71 70.52 39.1 70.43 39.53C70.35 39.96 70.39 40.4 70.56 40.8C70.72 41.2 71 41.54 71.36 41.78C71.71 42.02 72.14 42.15 72.57 42.15C72.85 42.15 73.14 42.1 73.4 41.99C73.67 41.88 73.91 41.72 74.11 41.51C74.31 41.31 74.47 41.07 74.58 40.8C74.69 40.53 74.75 40.25 74.74 39.96Z" fill="#FDE471" fill-opacity="1.000000" fill-rule="nonzero"/>
		<path id="Vector" d="M106.02 25.13C106.02 24.81 105.93 24.49 105.75 24.22C105.57 23.95 105.31 23.74 105.01 23.61C104.72 23.49 104.39 23.46 104.07 23.52C103.75 23.58 103.46 23.74 103.23 23.97C103.01 24.2 102.85 24.49 102.79 24.81C102.72 25.13 102.76 25.46 102.88 25.76C103 26.06 103.21 26.32 103.48 26.5C103.75 26.68 104.07 26.78 104.39 26.78C104.82 26.78 105.24 26.6 105.54 26.3C105.85 25.99 106.02 25.57 106.02 25.13Z" fill="#FDE471" fill-opacity="1.000000" fill-rule="nonzero"/>
		<path id="Vector" d="M85.56 38.77C85.56 38.51 85.49 38.27 85.35 38.05C85.21 37.84 85.01 37.67 84.78 37.57C84.55 37.47 84.29 37.45 84.04 37.5C83.79 37.54 83.57 37.67 83.39 37.85C83.21 38.03 83.09 38.26 83.04 38.51C82.99 38.76 83.02 39.01 83.12 39.25C83.21 39.48 83.38 39.68 83.59 39.82C83.8 39.96 84.05 40.03 84.3 40.03C84.47 40.03 84.63 40 84.78 39.93C84.94 39.87 85.07 39.78 85.19 39.66C85.31 39.54 85.4 39.41 85.46 39.25C85.52 39.1 85.56 38.93 85.56 38.77Z" fill="#FDE471" fill-opacity="1.000000" fill-rule="nonzero"/>
		<path id="Vector" d="M54.02 -0.61C44.59 1.02 29.51 15.52 26.12 21.64C25.88 24.37 23.44 54.42 31.04 69.41C32.4 70.94 48.85 77.34 55.08 76.83C52.43 71 48.71 39.59 53.62 25.52C57.25 20.16 68.88 7.64 80.5 5.41C92.11 3.18 54.02 -0.61 54.02 -0.61Z" fill="#030800" fill-opacity="1.000000" fill-rule="nonzero"/>
		<path id="Vector" d="M55 13.51C48.67 24.35 48 24.99 40.96 23.16C34.3 21.46 25.27 22.74 35.52 12.96C47.06 2.17 58.34 -0.88 64.06 1.53C66.81 2.69 60.56 3.96 55 13.51Z" fill="#113000" fill-opacity="1.000000" fill-rule="nonzero"/>
		<path id="Vector" d="M69.37 5.15C69.54 3.96 65.74 2.48 60.83 1.83C55.91 1.17 51.88 1.61 51.76 2.79C51.63 3.98 56.29 1.92 60.59 3.96C67.92 7.49 69.23 6.34 69.37 5.15Z" fill="#FFFFFF" fill-opacity="1.000000" fill-rule="nonzero"/>
	</g>
</svg>
