<svg width="42.000000" height="32.000000" viewBox="0 0 42 32" fill="none" xmlns="http://www.w3.org/2000/svg" xmlns:xlink="http://www.w3.org/1999/xlink">
	<desc>
			Created with Pixso.
	</desc>
	<defs>
		<clipPath id="clip1203_16192">
			<rect id="Asset 15" width="42.000000" height="32.000000" fill="white" fill-opacity="0"/>
		</clipPath>
	</defs>
	<rect id="Asset 15" width="42.000000" height="32.000000" fill="#FFFFFF" fill-opacity="0"/>
	<g clip-path="url(#clip1203_16192)">
		<path id="Vector" d="M33.04 28.02C33.17 25.54 28.67 23.2 22.96 22.87C17.26 22.54 12.55 24.29 12.41 26.8C12.29 29.31 16.79 31.61 22.49 31.95C28.18 32.29 32.9 30.53 33.04 28.02Z" fill="#B8B5AA" fill-opacity="1.000000" fill-rule="nonzero"/>
		<path id="Vector" d="M12.86 26.46C12.86 28.23 16.5 29.66 21 29.66C25.49 29.66 29.13 28.23 29.13 26.46C29.13 24.69 25.49 18.01 21 18.01C16.5 18.01 12.86 24.69 12.86 26.46Z" fill="#9C5723" fill-opacity="1.000000" fill-rule="nonzero"/>
		<path id="Vector" d="M42 15.95C42 13 32.59 10.63 21 10.63C9.4 10.63 0 13.01 0 15.95C0 18.89 9.4 28.28 21 28.28C32.59 28.28 42 18.88 42 15.95Z" fill="#B4703D" fill-opacity="1.000000" fill-rule="nonzero"/>
		<path id="Vector" d="M42 15.95C42 21.31 32.59 25.65 21 25.65C9.4 25.65 0 21.31 0 15.95C0 10.59 9.4 6.25 21 6.25C32.59 6.25 42 10.59 42 15.95Z" fill="#E6BE8A" fill-opacity="1.000000" fill-rule="evenodd"/>
		<path id="Vector" d="M21 24.09C10.32 24.09 1.3 20.22 1.3 15.63C1.3 11.05 10.32 7.18 21 7.18C31.67 7.18 40.69 11.05 40.69 15.63C40.69 20.22 31.67 24.09 21 24.09Z" fill="#B4703D" fill-opacity="1.000000" fill-rule="nonzero"/>
		<path id="Vector" d="M17.65 11.4C10.17 10.36 3.51 13.55 3.07 18.34C3.05 18.58 3.05 18.82 3.07 19.06C6.2 22 13.16 24.09 21.01 24.09C24.19 24.1 27.35 23.75 30.45 23.02C30.53 22.73 30.58 22.44 30.61 22.14C31.03 17.34 25.11 12.42 17.65 11.4Z" fill="#9C5723" fill-opacity="1.000000" fill-rule="nonzero"/>
		<path id="Vector" d="M24.35 11.39C45.29 7.85 25.1 27.89 38.94 19.06C35.81 22 28.85 24.09 21 24.09C17.82 24.1 14.66 23.75 11.56 23.02C11.48 22.73 11.43 22.44 11.4 22.14C10.96 17.34 16.91 12.65 24.35 11.39Z" fill="#B4703D" fill-opacity="1.000000" fill-rule="nonzero"/>
		<path id="Vector" d="M3.1 20.07C2.94 20.72 5 22.1 7.72 23.15C10.44 24.2 12.75 24.55 12.91 23.89C13.06 23.23 10.55 23.45 7.82 22.42C5.09 21.38 3.26 19.43 3.1 20.07Z" fill="#FFFFFF" fill-opacity="1.000000" fill-rule="nonzero"/>
		<path id="Vector" d="M26.85 3.55C30.08 0.48 29.54 0.56 29.29 0.25C29.03 -0.06 29.17 -0.63 25.92 2.45C22.66 5.54 20.24 8.25 20.5 8.56C20.75 8.87 23.58 6.62 26.85 3.55Z" fill="#FFC554" fill-opacity="1.000000" fill-rule="nonzero"/>
		<path id="Vector" d="M26.4 3.01C29.63 -0.06 29.23 0.18 29.14 0.06C29.06 -0.05 29.33 -0.43 26.08 2.62C22.83 5.67 20.26 8.29 20.34 8.39C20.42 8.49 23.15 6.09 26.4 3.01Z" fill="#FFFFFF" fill-opacity="1.000000" fill-rule="nonzero"/>
		<path id="Vector" d="M12.6 15.99C15.84 12.92 15.38 13.1 15.24 12.92C15.1 12.75 15.31 12.27 12.06 15.34C8.81 18.41 6.3 21.06 6.47 21.23C6.64 21.41 9.35 19.07 12.6 15.99Z" fill="#FFC554" fill-opacity="1.000000" fill-rule="nonzero"/>
		<path id="Vector" d="M12.34 15.68C15.58 12.6 15.21 12.88 15.15 12.82C15.1 12.77 15.41 12.39 12.16 15.46C8.91 18.54 6.4 21.17 6.47 21.23C6.54 21.29 9.09 18.75 12.34 15.68Z" fill="#FFFFFF" fill-opacity="1.000000" fill-rule="nonzero"/>
		<path id="Vector" d="M36.68 4.17C39.66 0.8 39.11 0.93 38.84 0.65C38.57 0.37 38.65 -0.22 35.67 3.15C32.69 6.52 30.52 9.48 30.77 9.76C31.03 10.04 33.7 7.53 36.68 4.17Z" fill="#FFC554" fill-opacity="1.000000" fill-rule="nonzero"/>
		<path id="Vector" d="M36.19 3.68C39.16 0.31 38.77 0.59 38.68 0.49C38.59 0.38 38.84 -0.03 35.84 3.33C32.84 6.69 30.52 9.51 30.62 9.6C30.72 9.7 33.2 7.04 36.19 3.68Z" fill="#FFFFFF" fill-opacity="1.000000" fill-rule="nonzero"/>
		<path id="Vector" d="M25.43 16.27C25.21 16.06 25.35 15.53 22.37 18.9C20.58 20.92 19.05 22.79 18.16 23.99L18.59 23.99L19.06 23.99C20.12 22.96 21.57 21.42 23.14 19.65C26.12 16.31 25.63 16.49 25.43 16.27Z" fill="#FFC554" fill-opacity="1.000000" fill-rule="nonzero"/>
		<path id="Vector" d="M25.29 16.15C25.22 16.08 25.47 15.66 22.49 19.03C20.75 21 19.26 22.82 18.33 24L18.57 24L18.62 24C19.61 22.88 21.08 21.18 22.75 19.29C25.74 15.93 25.36 16.23 25.29 16.15Z" fill="#FFFFFF" fill-opacity="1.000000" fill-rule="nonzero"/>
		<path id="Vector" d="M24.79 5.24C24.36 4.56 23.71 4.07 22.96 3.87C22.21 3.67 21.42 3.76 20.74 4.14C20.11 4.36 19.55 4.77 19.15 5.32C18.65 5.58 18.23 5.95 17.9 6.41C17.63 6.85 17.49 7.36 17.5 7.88C17.51 8.4 17.66 8.9 17.95 9.33C18.04 9.49 18.15 9.65 18.27 9.79C18.27 9.87 18.31 9.94 18.34 10.02C19.16 12.02 21.73 12.39 23.43 11.49C23.6 11.39 23.77 11.28 23.94 11.15C24.37 10.97 24.76 10.69 25.08 10.32C25.39 9.95 25.62 9.51 25.74 9.03C26.09 7.75 25.48 6.26 24.79 5.24Z" fill="#E39B0E" fill-opacity="1.000000" fill-rule="nonzero"/>
		<path id="Vector" d="M24.13 5.23C23.76 4.63 23.19 4.2 22.54 4.02C21.89 3.84 21.2 3.92 20.6 4.24C20.05 4.44 19.57 4.8 19.21 5.27C18.78 5.5 18.41 5.82 18.13 6.23C17.89 6.61 17.77 7.05 17.78 7.5C17.78 7.96 17.92 8.4 18.17 8.77C18.25 8.91 18.35 9.05 18.45 9.17C18.47 9.24 18.49 9.3 18.51 9.37C19.22 11.11 21.47 11.43 22.94 10.64C23.1 10.56 23.26 10.46 23.41 10.35C23.78 10.2 24.12 9.95 24.39 9.63C24.66 9.32 24.86 8.94 24.97 8.52C25.27 7.41 24.73 6.11 24.13 5.23Z" fill="#FFC554" fill-opacity="1.000000" fill-rule="nonzero"/>
		<path id="Vector" d="M21.55 7.95C22.65 6.84 23.07 5.41 22.48 4.77C21.89 4.14 20.55 4.52 19.45 5.63C18.35 6.75 17.94 8.17 18.52 8.81C19.11 9.45 20.46 9.06 21.55 7.95Z" fill="#FFC554" fill-opacity="1.000000" fill-rule="nonzero"/>
		<path id="Vector" d="M23.92 3.92C21.66 2.33 18.57 4.67 17.59 6.38C17.55 6.5 17.51 6.63 17.49 6.75C17.27 7.15 17.69 7.56 18.14 7.55C18.89 7.6 19.22 7.91 19.14 8.49C19.18 8.65 19.27 8.78 19.4 8.87C19.53 8.96 19.68 9 19.83 8.98C20.21 8.9 20.59 8.9 20.97 8.96C21.12 8.99 21.27 8.96 21.4 8.88C21.53 8.8 21.62 8.67 21.66 8.52C21.73 8.88 21.81 9.25 21.91 9.61C21.97 9.73 22.06 9.82 22.18 9.89C22.29 9.95 22.42 9.98 22.55 9.97C23.23 9.97 23.62 9.11 23.87 8.65C23.98 8.45 24.06 8.23 24.11 8.01C24.33 8.18 24.52 8.38 24.72 8.56C24.83 8.64 24.95 8.68 25.08 8.69C25.21 8.7 25.33 8.66 25.44 8.6C27.16 7.36 25.3 4.91 23.92 3.92Z" fill="#9C5723" fill-opacity="1.000000" fill-rule="nonzero"/>
		<path id="Vector" d="M18.16 6.76C18.25 6.62 18.25 6.46 18.16 6.4C18.07 6.35 17.94 6.4 17.86 6.55C17.77 6.69 17.76 6.84 17.86 6.9C17.95 6.96 18.07 6.9 18.16 6.76Z" fill="#FFFFFF" fill-opacity="1.000000" fill-rule="nonzero"/>
		<path id="Vector" d="M19.76 8.24C19.84 8.1 19.85 7.94 19.76 7.88C19.66 7.82 19.54 7.88 19.46 8.03C19.37 8.18 19.36 8.32 19.46 8.38C19.55 8.44 19.67 8.37 19.76 8.24Z" fill="#FFFFFF" fill-opacity="1.000000" fill-rule="nonzero"/>
		<path id="Vector" d="M19.63 7.72C19.66 7.66 19.66 7.6 19.63 7.57C19.59 7.55 19.53 7.57 19.5 7.63C19.47 7.69 19.46 7.76 19.5 7.78C19.54 7.8 19.59 7.78 19.63 7.72Z" fill="#FFFFFF" fill-opacity="1.000000" fill-rule="nonzero"/>
		<path id="Vector" d="M25.16 7.99C25.11 7.9 25.02 7.85 24.97 7.89C24.91 7.92 24.91 8.03 24.97 8.12C25.02 8.21 25.11 8.26 25.16 8.22C25.22 8.18 25.21 8.08 25.16 7.99Z" fill="#FFFFFF" fill-opacity="1.000000" fill-rule="nonzero"/>
		<path id="Vector" d="M22.43 9.24C22.43 9.04 22.35 8.87 22.26 8.87C22.16 8.87 22.08 9.03 22.08 9.23C22.08 9.44 22.15 9.6 22.25 9.6C22.34 9.61 22.42 9.44 22.43 9.24Z" fill="#FFFFFF" fill-opacity="1.000000" fill-rule="nonzero"/>
		<path id="Vector" d="M22.76 3.85C22.66 3.62 21.74 3.76 20.72 4.16C19.69 4.55 18.96 5.06 19.04 5.29C19.12 5.52 19.82 4.8 20.85 4.41C21.88 4.01 22.86 4.08 22.76 3.85Z" fill="#FFFFFF" fill-opacity="1.000000" fill-rule="nonzero"/>
		<path id="Vector" d="M20.68 9.04C20.2 8.29 19.48 7.75 18.65 7.52C17.82 7.3 16.94 7.4 16.18 7.81C15.48 8.06 14.86 8.52 14.41 9.13C13.86 9.41 13.39 9.83 13.02 10.35C12.35 11.39 12.49 12.55 13.08 13.6C13.18 13.77 13.31 13.93 13.44 14.09C13.47 14.17 13.48 14.25 13.51 14.34C14.44 16.57 17.29 16.98 19.18 15.97C19.38 15.86 19.57 15.74 19.75 15.6C20.23 15.39 20.66 15.08 21 14.67C21.34 14.27 21.59 13.78 21.73 13.26C22.14 11.84 21.44 10.17 20.68 9.04Z" fill="#E39B0E" fill-opacity="1.000000" fill-rule="nonzero"/>
		<path id="Vector" d="M19.95 9.02C19.53 8.36 18.9 7.89 18.17 7.69C17.44 7.5 16.67 7.59 16.01 7.95C15.4 8.17 14.87 8.57 14.47 9.1C14 9.35 13.58 9.71 13.27 10.16C13 10.58 12.87 11.08 12.87 11.58C12.88 12.09 13.03 12.58 13.31 12.99C13.4 13.15 13.51 13.3 13.62 13.44C13.65 13.51 13.66 13.59 13.69 13.65C14.48 15.62 16.99 15.96 18.63 15.08C18.8 14.99 18.97 14.88 19.13 14.75C19.55 14.58 19.93 14.31 20.23 13.95C20.54 13.59 20.76 13.16 20.87 12.7C21.22 11.46 20.61 10.01 19.95 9.02Z" fill="#FFC554" fill-opacity="1.000000" fill-rule="nonzero"/>
		<path id="Vector" d="M17.07 12.06C18.29 10.82 18.76 9.23 18.12 8.52C17.48 7.81 15.97 8.24 14.75 9.47C13.53 10.71 13.06 12.3 13.7 13.02C14.34 13.73 15.85 13.3 17.07 12.06Z" fill="#FFC554" fill-opacity="1.000000" fill-rule="nonzero"/>
		<path id="Vector" d="M19.71 7.6C17.19 5.82 13.75 8.42 12.66 10.31C12.62 10.39 12.58 10.66 12.54 10.72C12.31 11.17 12.77 11.62 13.27 11.62C14.11 11.66 14.48 12.01 14.39 12.66C14.42 12.84 14.52 13.01 14.67 13.12C14.81 13.23 14.99 13.28 15.16 13.26C15.58 13.17 16.01 13.16 16.43 13.23C16.59 13.26 16.76 13.23 16.91 13.14C17.05 13.05 17.15 12.91 17.2 12.74C17.27 13.15 17.36 13.55 17.47 13.95C17.54 14.08 17.65 14.19 17.77 14.26C17.9 14.33 18.04 14.37 18.18 14.35C18.94 14.35 19.38 13.37 19.66 12.88C19.78 12.65 19.86 12.41 19.92 12.17C20.16 12.36 20.38 12.58 20.61 12.78C20.72 12.87 20.86 12.92 21 12.93C21.14 12.93 21.28 12.9 21.41 12.82C23.32 11.4 21.24 8.68 19.71 7.6Z" fill="#9C5723" fill-opacity="1.000000" fill-rule="nonzero"/>
		<path id="Vector" d="M13.3 10.73C13.39 10.58 13.4 10.4 13.3 10.33C13.19 10.27 13.06 10.33 12.96 10.5C12.86 10.66 12.86 10.83 12.96 10.89C13.06 10.95 13.2 10.88 13.3 10.73Z" fill="#FFFFFF" fill-opacity="1.000000" fill-rule="nonzero"/>
		<path id="Vector" d="M15.08 12.38C15.17 12.23 15.18 12.05 15.08 11.98C14.97 11.92 14.83 11.98 14.74 12.15C14.64 12.31 14.64 12.48 14.74 12.54C14.84 12.6 14.98 12.53 15.08 12.38Z" fill="#FFFFFF" fill-opacity="1.000000" fill-rule="nonzero"/>
		<path id="Vector" d="M14.93 11.78C14.97 11.72 14.97 11.65 14.93 11.62C14.89 11.6 14.83 11.62 14.79 11.68C14.75 11.75 14.75 11.82 14.79 11.85C14.83 11.87 14.89 11.87 14.93 11.78Z" fill="#FFFFFF" fill-opacity="1.000000" fill-rule="nonzero"/>
		<path id="Vector" d="M21.09 12.11C21.04 12 20.94 11.96 20.88 11.99C20.82 12.02 20.82 12.15 20.88 12.25C20.94 12.35 21.04 12.4 21.1 12.36C21.16 12.32 21.15 12.21 21.09 12.11Z" fill="#FFFFFF" fill-opacity="1.000000" fill-rule="nonzero"/>
		<path id="Vector" d="M18.03 13.49C18.03 13.27 17.95 13.08 17.84 13.08C17.73 13.08 17.64 13.26 17.64 13.49C17.64 13.71 17.73 13.9 17.83 13.9C17.94 13.9 18.03 13.72 18.03 13.49Z" fill="#FFFFFF" fill-opacity="1.000000" fill-rule="nonzero"/>
		<path id="Vector" d="M18.42 7.49C18.31 7.23 17.29 7.39 16.14 7.83C15 8.28 14.16 8.84 14.29 9.1C14.43 9.35 15.17 8.56 16.31 8.11C17.45 7.67 18.53 7.75 18.42 7.49Z" fill="#FFFFFF" fill-opacity="1.000000" fill-rule="nonzero"/>
		<path id="Vector" d="M15.9 13.45C15.4 12.65 14.63 12.08 13.75 11.84C12.88 11.6 11.95 11.71 11.14 12.15C10.41 12.41 9.76 12.89 9.29 13.54C8.71 13.84 8.21 14.28 7.83 14.82C7.12 15.92 7.26 17.15 7.88 18.26C8 18.45 8.12 18.63 8.26 18.8C8.3 18.89 8.31 18.98 8.35 19.07C9.3 21.42 12.33 21.86 14.33 20.8C14.54 20.68 14.74 20.55 14.93 20.4C15.44 20.19 15.9 19.85 16.27 19.42C16.64 18.99 16.9 18.47 17.05 17.9C17.44 16.4 16.71 14.64 15.9 13.45Z" fill="#E39B0E" fill-opacity="1.000000" fill-rule="nonzero"/>
		<path id="Vector" d="M15.13 13.42C14.69 12.73 14.02 12.23 13.25 12.02C12.48 11.82 11.67 11.91 10.97 12.3C10.33 12.52 9.76 12.94 9.34 13.51C8.84 13.77 8.4 14.15 8.07 14.63C7.79 15.07 7.65 15.6 7.66 16.13C7.67 16.66 7.83 17.18 8.12 17.61C8.22 17.79 8.33 17.95 8.45 18.1C8.48 18.18 8.49 18.26 8.52 18.34C9.35 20.39 12 20.79 13.73 19.84C13.91 19.74 14.09 19.63 14.26 19.49C14.71 19.31 15.11 19.02 15.43 18.64C15.75 18.26 15.98 17.81 16.11 17.32C16.47 16 15.83 14.46 15.13 13.42Z" fill="#FFC554" fill-opacity="1.000000" fill-rule="nonzero"/>
		<path id="Vector" d="M12.1 16.63C13.41 15.32 13.87 13.65 13.2 12.89C12.54 12.14 10.93 12.59 9.64 13.91C8.35 15.22 7.86 16.89 8.54 17.64C9.22 18.39 10.81 17.94 12.1 16.63Z" fill="#FFC554" fill-opacity="1.000000" fill-rule="nonzero"/>
		<path id="Vector" d="M14.88 11.92C12.23 10.04 8.59 12.8 7.45 14.8C7.4 14.89 7.35 15.16 7.32 15.24C7.07 15.71 7.56 16.2 8.09 16.2C8.97 16.25 9.35 16.62 9.27 17.3C9.31 17.49 9.42 17.65 9.57 17.76C9.72 17.87 9.9 17.92 10.08 17.9C10.52 17.81 10.98 17.79 11.42 17.87C11.59 17.91 11.77 17.87 11.92 17.78C12.07 17.68 12.18 17.53 12.23 17.35C12.3 17.78 12.4 18.21 12.52 18.63C12.59 18.77 12.7 18.88 12.83 18.96C12.97 19.03 13.12 19.07 13.27 19.05C14.06 19.05 14.53 18.04 14.83 17.51C14.95 17.27 15.04 17.02 15.1 16.75C15.36 16.96 15.59 17.2 15.83 17.4C15.95 17.49 16.1 17.55 16.25 17.55C16.4 17.56 16.55 17.52 16.68 17.44C18.69 15.93 16.5 13.07 14.88 11.92Z" fill="#9C5723" fill-opacity="1.000000" fill-rule="nonzero"/>
		<path id="Vector" d="M8.11 15.22C8.22 15.06 8.22 14.88 8.11 14.81C8 14.74 7.86 14.81 7.75 14.98C7.65 15.14 7.64 15.32 7.75 15.39C7.87 15.46 8.01 15.39 8.11 15.22Z" fill="#FFFFFF" fill-opacity="1.000000" fill-rule="nonzero"/>
		<path id="Vector" d="M9.99 16.97C10.09 16.8 10.1 16.62 9.99 16.55C9.88 16.48 9.73 16.55 9.63 16.72C9.52 16.89 9.52 17.07 9.63 17.14C9.73 17.21 9.89 17.13 9.99 16.97Z" fill="#FFFFFF" fill-opacity="1.000000" fill-rule="nonzero"/>
		<path id="Vector" d="M9.84 16.36C9.88 16.29 9.88 16.21 9.84 16.18C9.79 16.15 9.73 16.18 9.69 16.26C9.65 16.33 9.64 16.4 9.69 16.43C9.74 16.46 9.79 16.42 9.84 16.36Z" fill="#FFFFFF" fill-opacity="1.000000" fill-rule="nonzero"/>
		<path id="Vector" d="M16.34 16.7C16.28 16.59 16.18 16.53 16.12 16.57C16.06 16.61 16.05 16.74 16.12 16.85C16.18 16.96 16.28 17.01 16.35 16.97C16.41 16.92 16.41 16.79 16.34 16.7Z" fill="#FFFFFF" fill-opacity="1.000000" fill-rule="nonzero"/>
		<path id="Vector" d="M13.13 18.17C13.13 17.93 13.04 17.74 12.93 17.74C12.82 17.74 12.72 17.93 12.72 18.16C12.71 18.4 12.81 18.59 12.92 18.6C13.04 18.6 13.13 18.38 13.13 18.17Z" fill="#FFFFFF" fill-opacity="1.000000" fill-rule="nonzero"/>
		<path id="Vector" d="M13.52 11.81C13.41 11.54 12.33 11.7 11.12 12.17C9.91 12.64 9.03 13.26 9.15 13.5C9.27 13.75 10.07 12.93 11.27 12.47C12.48 12 13.64 12.08 13.52 11.81Z" fill="#FFFFFF" fill-opacity="1.000000" fill-rule="nonzero"/>
		<path id="Vector" d="M34.61 5.5C34.08 4.85 33.33 4.42 32.52 4.31C31.71 4.2 30.89 4.41 30.21 4.91C29.57 5.22 29.03 5.74 28.67 6.38C28.18 6.71 27.78 7.16 27.5 7.7C27.27 8.19 27.18 8.75 27.25 9.29C27.33 9.84 27.56 10.35 27.91 10.76C28.03 10.92 28.16 11.06 28.31 11.2C28.34 11.28 28.37 11.35 28.41 11.42C29.51 13.42 32.27 13.45 33.96 12.26C34.13 12.13 34.3 11.99 34.46 11.83C34.89 11.58 35.26 11.22 35.54 10.78C35.82 10.35 36 9.85 36.07 9.33C36.3 7.96 35.46 6.47 34.61 5.5Z" fill="#E39B0E" fill-opacity="1.000000" fill-rule="nonzero"/>
		<path id="Vector" d="M33.92 5.58C33.45 5.01 32.8 4.65 32.09 4.56C31.39 4.47 30.67 4.65 30.09 5.08C29.53 5.36 29.07 5.81 28.76 6.37C28.34 6.65 27.99 7.04 27.74 7.49C27.54 7.92 27.47 8.41 27.53 8.88C27.6 9.36 27.8 9.8 28.1 10.16C28.21 10.3 28.32 10.42 28.45 10.54C28.48 10.61 28.5 10.67 28.54 10.74C29.5 12.47 31.9 12.5 33.36 11.46C33.51 11.35 33.65 11.23 33.79 11.09C34.17 10.87 34.5 10.57 34.74 10.19C34.99 9.81 35.15 9.38 35.21 8.92C35.39 7.72 34.68 6.42 33.92 5.58Z" fill="#FFC554" fill-opacity="1.000000" fill-rule="nonzero"/>
		<path id="Vector" d="M31.55 8.8C32.56 7.48 32.82 5.92 32.14 5.33C31.45 4.73 30.07 5.33 29.06 6.66C28.05 7.98 27.78 9.54 28.47 10.13C29.16 10.72 30.52 10.13 31.55 8.8Z" fill="#FFC554" fill-opacity="1.000000" fill-rule="nonzero"/>
		<path id="Vector" d="M33.53 4.26C30.97 2.9 27.98 5.79 27.19 7.7C27.15 7.79 27.15 8.04 27.12 8.1C26.95 8.56 27.44 8.92 27.91 8.86C28.7 8.8 29.09 9.08 29.08 9.7C29.14 9.86 29.25 10 29.4 10.07C29.54 10.15 29.71 10.17 29.87 10.13C30.25 10 30.66 9.94 31.07 9.95C31.22 9.96 31.38 9.91 31.5 9.81C31.63 9.71 31.71 9.56 31.73 9.39C31.85 9.77 31.98 10.14 32.13 10.5C32.21 10.62 32.32 10.71 32.44 10.76C32.56 10.81 32.7 10.83 32.83 10.8C33.54 10.7 33.85 9.74 34.06 9.23C34.15 9 34.2 8.77 34.23 8.53C34.48 8.68 34.69 8.86 34.95 9.02C35.07 9.08 35.2 9.11 35.33 9.1C35.47 9.09 35.6 9.04 35.71 8.95C37.37 7.39 35.1 5.09 33.53 4.26Z" fill="#9C5723" fill-opacity="1.000000" fill-rule="nonzero"/>
		<path id="Vector" d="M27.83 8.02C27.9 7.87 27.9 7.7 27.8 7.65C27.71 7.6 27.58 7.69 27.5 7.84C27.43 8 27.44 8.17 27.53 8.22C27.62 8.27 27.74 8.18 27.83 8.02Z" fill="#FFFFFF" fill-opacity="1.000000" fill-rule="nonzero"/>
		<path id="Vector" d="M29.69 9.36C29.77 9.2 29.75 9.03 29.67 8.98C29.58 8.93 29.44 9.02 29.36 9.17C29.28 9.33 29.3 9.5 29.39 9.55C29.49 9.6 29.62 9.51 29.69 9.36Z" fill="#FFFFFF" fill-opacity="1.000000" fill-rule="nonzero"/>
		<path id="Vector" d="M29.49 8.84C29.52 8.77 29.52 8.7 29.49 8.68C29.46 8.66 29.4 8.68 29.36 8.76C29.33 8.85 29.36 8.89 29.36 8.91C29.36 8.93 29.46 8.89 29.49 8.84Z" fill="#FFFFFF" fill-opacity="1.000000" fill-rule="nonzero"/>
		<path id="Vector" d="M35.34 8.34C35.28 8.25 35.18 8.22 35.13 8.26C35.07 8.31 35.09 8.41 35.16 8.5C35.22 8.59 35.32 8.63 35.37 8.59C35.42 8.54 35.41 8.43 35.34 8.34Z" fill="#FFFFFF" fill-opacity="1.000000" fill-rule="nonzero"/>
		<path id="Vector" d="M32.63 10.03C32.63 9.82 32.5 9.66 32.4 9.67C32.3 9.68 32.24 9.87 32.26 10.08C32.28 10.29 32.38 10.45 32.48 10.44C32.58 10.43 32.65 10.25 32.63 10.03Z" fill="#FFFFFF" fill-opacity="1.000000" fill-rule="nonzero"/>
		<path id="Vector" d="M32.31 4.32C32.17 4.1 31.23 4.37 30.2 4.93C29.17 5.5 28.44 6.13 28.58 6.38C28.71 6.63 29.34 5.76 30.37 5.2C31.4 4.63 32.44 4.55 32.31 4.32Z" fill="#FFFFFF" fill-opacity="1.000000" fill-rule="nonzero"/>
		<path id="Vector" d="M30.76 10.07C30.16 9.34 29.33 8.87 28.43 8.75C27.52 8.63 26.61 8.86 25.86 9.42C25.16 9.77 24.57 10.34 24.16 11.05C23.63 11.42 23.18 11.93 22.86 12.52C22.28 13.71 22.57 14.92 23.33 15.93C23.47 16.11 23.62 16.28 23.79 16.42C23.83 16.51 23.85 16.59 23.9 16.68C25.13 18.9 28.2 18.93 30.06 17.6C30.26 17.46 30.44 17.29 30.61 17.11C31.1 16.84 31.51 16.44 31.83 15.96C32.15 15.48 32.35 14.93 32.43 14.35C32.64 12.81 31.71 11.15 30.76 10.07Z" fill="#E39B0E" fill-opacity="1.000000" fill-rule="nonzero"/>
		<path id="Vector" d="M29.99 10.16C29.47 9.52 28.75 9.11 27.96 9.01C27.17 8.9 26.38 9.11 25.72 9.58C25.11 9.89 24.59 10.39 24.24 11.01C23.78 11.33 23.39 11.76 23.12 12.27C22.9 12.75 22.82 13.29 22.89 13.81C22.96 14.34 23.18 14.83 23.52 15.22C23.63 15.38 23.76 15.52 23.9 15.65C23.94 15.72 23.96 15.8 24 15.87C25.07 17.8 27.75 17.83 29.37 16.68C29.53 16.55 29.68 16.41 29.83 16.26C30.25 16.03 30.62 15.69 30.9 15.28C31.18 14.87 31.37 14.39 31.44 13.89C31.63 12.54 30.81 11.1 29.99 10.16Z" fill="#FFC554" fill-opacity="1.000000" fill-rule="nonzero"/>
		<path id="Vector" d="M27.35 13.75C28.48 12.27 28.77 10.55 28 9.88C27.24 9.22 25.69 9.88 24.58 11.36C23.46 12.83 23.15 14.57 23.92 15.22C24.68 15.87 26.22 15.22 27.35 13.75Z" fill="#FFC554" fill-opacity="1.000000" fill-rule="nonzero"/>
		<path id="Vector" d="M29.56 8.69C26.7 7.18 23.4 10.39 22.49 12.54C22.45 12.64 22.45 12.92 22.42 13C22.23 13.49 22.77 13.91 23.3 13.83C24.18 13.76 24.61 14.08 24.6 14.77C24.67 14.95 24.79 15.1 24.95 15.19C25.12 15.28 25.3 15.31 25.48 15.26C25.91 15.11 26.36 15.03 26.82 15.05C26.99 15.07 27.17 15.01 27.31 14.89C27.44 14.78 27.54 14.61 27.56 14.43C27.69 14.85 27.83 15.26 28 15.66C28.09 15.79 28.21 15.89 28.35 15.95C28.5 16.01 28.65 16.02 28.8 15.98C29.59 15.87 29.93 14.81 30.18 14.23C30.28 13.98 30.34 13.72 30.37 13.45C30.65 13.63 30.91 13.82 31.17 14C31.3 14.07 31.45 14.11 31.6 14.1C31.75 14.08 31.9 14.03 32.02 13.93C33.83 12.18 31.31 9.62 29.56 8.69Z" fill="#9C5723" fill-opacity="1.000000" fill-rule="nonzero"/>
		<path id="Vector" d="M23.21 12.88C23.29 12.71 23.28 12.52 23.18 12.47C23.08 12.41 22.92 12.51 22.84 12.68C22.76 12.85 22.77 13.05 22.87 13.1C22.97 13.15 23.12 13.06 23.21 12.88Z" fill="#FFFFFF" fill-opacity="1.000000" fill-rule="nonzero"/>
		<path id="Vector" d="M25.29 14.37C25.37 14.19 25.35 14.01 25.25 13.95C25.15 13.89 25 13.99 24.92 14.17C24.83 14.34 24.85 14.53 24.95 14.58C25.05 14.64 25.2 14.54 25.29 14.37Z" fill="#FFFFFF" fill-opacity="1.000000" fill-rule="nonzero"/>
		<path id="Vector" d="M25.06 13.78C25.09 13.71 25.09 13.63 25.06 13.61C25.03 13.59 24.95 13.61 24.92 13.7C24.89 13.79 24.89 13.85 24.92 13.87C24.95 13.9 25.02 13.86 25.06 13.78Z" fill="#FFFFFF" fill-opacity="1.000000" fill-rule="nonzero"/>
		<path id="Vector" d="M31.58 13.26C31.51 13.16 31.4 13.12 31.34 13.17C31.28 13.22 31.29 13.34 31.37 13.44C31.44 13.54 31.55 13.58 31.61 13.53C31.67 13.48 31.65 13.34 31.58 13.26Z" fill="#FFFFFF" fill-opacity="1.000000" fill-rule="nonzero"/>
		<path id="Vector" d="M28.55 15.12C28.55 14.88 28.41 14.71 28.3 14.72C28.19 14.74 28.12 14.94 28.14 15.17C28.16 15.41 28.28 15.59 28.39 15.58C28.51 15.56 28.58 15.36 28.55 15.12Z" fill="#FFFFFF" fill-opacity="1.000000" fill-rule="nonzero"/>
		<path id="Vector" d="M28.2 8.76C28.05 8.51 27 8.81 25.85 9.44C24.7 10.06 23.88 10.8 24.04 11.03C24.2 11.25 24.89 10.34 26.04 9.71C27.19 9.08 28.35 9.01 28.2 8.76Z" fill="#FFFFFF" fill-opacity="1.000000" fill-rule="nonzero"/>
		<path id="Vector" d="M26.29 15.37C25.66 14.6 24.78 14.11 23.83 13.98C22.87 13.85 21.91 14.1 21.12 14.68C20.37 15.05 19.75 15.65 19.33 16.41C18.75 16.8 18.28 17.33 17.94 17.96C17.33 19.21 17.63 20.49 18.4 21.55C18.54 21.73 18.7 21.89 18.86 22.04C18.9 22.13 18.94 22.22 18.98 22.31C20.28 24.65 23.52 24.69 25.49 23.29C25.69 23.15 25.89 22.98 26.07 22.8C26.58 22.51 27.03 22.08 27.36 21.57C27.7 21.06 27.91 20.47 27.99 19.85C28.27 18.26 27.28 16.52 26.29 15.37Z" fill="#E39B0E" fill-opacity="1.000000" fill-rule="nonzero"/>
		<path id="Vector" d="M25.48 15.46C24.93 14.79 24.16 14.36 23.33 14.25C22.5 14.13 21.66 14.35 20.97 14.85C20.33 15.18 19.79 15.71 19.42 16.36C18.92 16.7 18.51 17.17 18.22 17.71C17.99 18.22 17.9 18.79 17.98 19.35C18.05 19.91 18.28 20.43 18.64 20.85C18.77 21.01 18.91 21.16 19.05 21.29C19.08 21.37 19.12 21.45 19.16 21.53C20.27 23.57 23.12 23.6 24.81 22.38C24.99 22.25 25.16 22.1 25.32 21.95C25.76 21.69 26.15 21.33 26.44 20.88C26.73 20.44 26.91 19.93 26.99 19.4C27.2 17.98 26.36 16.46 25.48 15.46Z" fill="#FFC554" fill-opacity="1.000000" fill-rule="nonzero"/>
		<path id="Vector" d="M22.68 19.25C23.88 17.7 24.19 15.87 23.38 15.17C22.58 14.48 20.95 15.17 19.76 16.73C18.57 18.3 18.26 20.12 19.07 20.82C19.88 21.51 21.5 20.81 22.68 19.25Z" fill="#FFC554" fill-opacity="1.000000" fill-rule="nonzero"/>
		<path id="Vector" d="M25.02 13.91C22 12.31 18.52 15.71 17.57 17.98C17.53 18.08 17.52 18.38 17.49 18.47C17.29 19.01 17.86 19.46 18.41 19.36C19.34 19.29 19.8 19.62 19.8 20.34C19.88 20.53 20.01 20.68 20.18 20.77C20.35 20.86 20.54 20.88 20.73 20.83C21.17 20.67 21.64 20.6 22.11 20.61C22.3 20.63 22.48 20.57 22.63 20.45C22.77 20.33 22.87 20.15 22.9 19.96C23.03 20.4 23.19 20.84 23.36 21.27C23.46 21.4 23.58 21.51 23.74 21.57C23.88 21.63 24.05 21.64 24.2 21.6C25.04 21.48 25.4 20.36 25.65 19.75C25.75 19.49 25.82 19.21 25.85 18.93C26.14 19.11 26.42 19.32 26.69 19.5C26.83 19.58 26.99 19.62 27.15 19.61C27.31 19.59 27.46 19.53 27.58 19.43C29.53 17.59 26.87 14.89 25.02 13.91Z" fill="#9C5723" fill-opacity="1.000000" fill-rule="nonzero"/>
		<path id="Vector" d="M18.32 18.34C18.41 18.15 18.39 17.96 18.28 17.9C18.17 17.84 18.02 17.94 17.93 18.13C17.84 18.32 17.86 18.51 17.96 18.57C18.07 18.63 18.23 18.52 18.32 18.34Z" fill="#FFFFFF" fill-opacity="1.000000" fill-rule="nonzero"/>
		<path id="Vector" d="M20.51 19.9C20.6 19.72 20.58 19.52 20.47 19.47C20.37 19.41 20.21 19.51 20.12 19.69C20.03 19.87 20.05 20.07 20.16 20.13C20.26 20.19 20.42 20.09 20.51 19.9Z" fill="#FFFFFF" fill-opacity="1.000000" fill-rule="nonzero"/>
		<path id="Vector" d="M20.27 19.29C20.31 19.21 20.3 19.13 20.27 19.1C20.24 19.08 20.16 19.1 20.12 19.2C20.08 19.3 20.09 19.36 20.12 19.38C20.15 19.41 20.23 19.36 20.27 19.29Z" fill="#FFFFFF" fill-opacity="1.000000" fill-rule="nonzero"/>
		<path id="Vector" d="M27.15 18.71C27.07 18.61 26.96 18.57 26.9 18.62C26.83 18.66 26.85 18.8 26.93 18.9C27.01 19 27.12 19.05 27.18 19C27.24 18.94 27.23 18.82 27.15 18.71Z" fill="#FFFFFF" fill-opacity="1.000000" fill-rule="nonzero"/>
		<path id="Vector" d="M23.95 20.7C23.93 20.45 23.81 20.26 23.69 20.28C23.57 20.29 23.49 20.5 23.52 20.77C23.55 21.03 23.67 21.21 23.79 21.19C23.91 21.18 23.98 20.95 23.95 20.7Z" fill="#FFFFFF" fill-opacity="1.000000" fill-rule="nonzero"/>
		<path id="Vector" d="M23.58 13.98C23.42 13.72 22.31 14.04 21.09 14.7C19.88 15.36 19.02 16.12 19.19 16.38C19.35 16.65 20.08 15.65 21.3 14.99C22.51 14.33 23.74 14.24 23.58 13.98Z" fill="#FFFFFF" fill-opacity="1.000000" fill-rule="nonzero"/>
	</g>
</svg>
