<svg width="214.000000" height="162.000000" viewBox="0 0 214 162" fill="none" xmlns="http://www.w3.org/2000/svg" xmlns:xlink="http://www.w3.org/1999/xlink">
	<desc>
			Created with Pixso.
	</desc>
	<defs/>
	<path id="Vector" d="M199.77 144.37C199.52 143.95 199.19 143.59 198.79 143.31C200.33 142.15 200.46 140 198.79 137.61C198.03 136.48 197.07 135.49 195.95 134.7C196.93 134.04 197.69 133.11 198.14 132.02C198.35 131.35 198.43 130.65 198.37 129.96C198.31 129.26 198.12 128.59 197.8 127.97C197.48 127.35 197.04 126.81 196.52 126.37C195.99 125.92 195.37 125.59 194.72 125.39C197.26 124.07 197.98 122.08 196.51 120.69C194.94 119.71 193.21 119.06 191.39 118.77C189.58 118.48 187.72 118.56 185.94 119L185.58 118.67C185.78 118.44 186.01 118.24 186.17 118.01C186.67 117.38 187 116.64 187.13 115.84C187.26 115.05 187.19 114.24 186.91 113.48C186.64 112.73 186.18 112.06 185.57 111.54C184.97 111.02 184.24 110.67 183.46 110.52C182.74 110.29 182 110.14 181.24 110.09C179.06 107.49 176.07 105.74 172.76 105.12C170.79 104.55 168.77 104.2 166.73 104.06C166.66 103.68 166.55 103.32 166.4 102.97C165.6 101.25 164.36 99.79 162.8 98.74C161.24 97.7 159.43 97.11 157.56 97.04L156.64 97.04C153.49 95 149.77 94.05 146.04 94.32C144.77 94.34 143.51 94.48 142.26 94.72C142.27 94.59 142.27 94.46 142.26 94.32C142.22 92.52 141.54 90.8 140.34 89.48C139.13 88.15 137.5 87.32 135.74 87.14C134.84 86.99 133.92 86.99 133.03 87.14C129.55 85.01 125.49 84.08 121.45 84.49C119.68 84.52 117.92 84.81 116.23 85.35C115.26 83.72 113.89 82.36 112.27 81.4C110.64 80.45 108.81 79.93 106.93 79.88C105.96 79.8 105.01 80.1 104.25 80.71C103.5 81.33 103.01 82.22 102.88 83.2C102.88 83.03 102.72 82.83 102.59 82.63C101.52 81 100.06 79.66 98.35 78.74C96.64 77.81 94.74 77.33 92.8 77.33C91.97 77.39 91.16 77.69 90.49 78.19C87.39 76.9 84.03 76.43 80.7 76.8C78.97 76.92 77.28 77.32 75.68 78C74.6 76.54 73.21 75.36 71.6 74.54C70 73.71 68.24 73.28 66.45 73.26C65.81 73.21 65.17 73.34 64.59 73.62C64.01 73.9 63.51 74.33 63.14 74.86C62.78 75.39 62.55 76.01 62.49 76.66C62.43 77.31 62.53 77.96 62.79 78.56C61.38 77.04 59.65 75.84 57.74 75.07C55.82 74.29 53.76 73.94 51.7 74.05C51.12 74.05 50.55 74.21 50.04 74.51C49.54 74.81 49.13 75.24 48.84 75.76C48.56 76.27 48.42 76.86 48.43 77.45C48.45 78.04 48.62 78.62 48.93 79.12C47.36 77.71 45.52 76.64 43.53 75.99C41.54 75.34 39.43 75.12 37.35 75.35C34.41 76.17 34.54 79.15 37.35 82.14L36.11 81.77C30.5 80.21 25.21 80.55 24.3 82.5C23.91 83.26 24.3 84.16 25.25 85.05C23.76 84.56 22.18 84.44 20.65 84.72C17.38 85.48 17.38 88.59 20.65 91.74C19.75 92.01 18.92 92.45 18.2 93.06C17.48 93.66 16.89 94.41 16.47 95.25C16.02 96.2 15.9 97.28 16.12 98.31C16.33 99.34 16.88 100.27 17.68 100.95C15.2 101.35 13.6 102.21 13.57 103.43C13.53 104.66 16.4 106.94 20.42 108.04C18.66 108.23 17.38 108.76 16.96 109.63C15.98 111.58 19.83 114.49 25.54 116.08L26.61 116.35C25.73 116.81 25.21 117.38 25.18 118.1C25.18 120.29 30.04 122.74 36.04 123.54L36.21 123.54C34.97 124.1 34.28 124.83 34.41 125.72C34.74 127.91 39.7 130.03 45.47 130.49C46.38 130.49 47.26 130.49 48.08 130.49C46.29 131.98 46.02 133.8 47.72 135.13C50.89 136.88 54.61 137.32 58.09 136.35C60.62 138.96 64 140.54 67.59 140.79C69.49 141.13 71.43 141.25 73.36 141.16C73.41 141.4 73.48 141.65 73.56 141.89C74.34 143.71 75.61 145.27 77.23 146.39C78.84 147.52 80.74 148.16 82.69 148.24C84.08 148.31 85.44 147.81 86.48 146.85L87.09 147.75C88.41 149.31 90.07 150.54 91.94 151.34C93.81 152.14 95.84 152.49 97.86 152.35C98.53 152.25 99.17 151.97 99.69 151.52C99.93 152.09 100.3 152.61 100.75 153.02C101.21 153.44 101.75 153.75 102.33 153.94C103.71 154.43 105.18 154.61 106.63 154.46C108.09 154.31 109.49 153.84 110.75 153.08C110.87 153.44 111.07 153.77 111.33 154.04C113.32 156.09 118.87 156.86 123.76 155.73C124.8 155.5 125.82 155.17 126.8 154.74C127.29 156.41 128.27 157.89 129.6 158.99C130.93 160.1 132.56 160.77 134.27 160.93C135.35 161.1 136.46 160.96 137.46 160.53C138.47 160.09 139.34 159.38 139.98 158.48C140.56 159.33 141.37 159.99 142.33 160.37C144.11 160.99 146.03 161.12 147.89 160.74C149.74 160.35 151.46 159.47 152.86 158.18C153.43 158.92 154.18 159.48 155.05 159.8C156.91 160.45 158.9 160.59 160.83 160.19C162.76 159.8 164.54 158.89 166.01 157.55C166.52 158.09 167.12 158.52 167.8 158.81C169.62 159.47 171.57 159.63 173.46 159.28C175.36 158.93 177.13 158.09 178.6 156.82C179.09 156.41 179.5 155.91 179.79 155.34C180.09 154.77 180.27 154.15 180.33 153.51C184.44 155.07 188.65 155.37 190.12 154.11C191.58 152.85 190.44 150.79 187.47 148.71C188.8 148.83 190.13 148.83 191.45 148.71C197.23 148.58 200.88 146.59 199.77 144.37Z" fill="#B8B5AA" fill-opacity="1.000000" fill-rule="nonzero"/>
	<path id="Vector" d="M203.65 97.93C203.38 97.31 202.98 96.76 202.48 96.31C203.11 94.65 203.36 92.87 203.2 91.11C203.05 89.34 202.5 87.63 201.6 86.11C200.77 84.5 199.67 83.05 198.34 81.84C199.26 80.08 199.82 78.15 200 76.17C200.59 70.87 198.56 66.24 195.4 65.11C196.51 63.9 197.21 62.36 197.37 60.71C197.54 59.07 197.17 57.41 196.31 56C194.13 53.52 189.56 53.95 185.58 56.86L185.16 56.3C185.32 55.84 185.48 55.41 185.61 54.91C187.18 48.98 185.39 43.38 181.63 42.36C180.89 42.17 180.12 42.17 179.38 42.36C178.4 40.71 177.06 39.31 175.46 38.28C173.85 37.26 172.04 36.62 170.15 36.43C168.13 36.03 166.04 36.03 164.02 36.43C163.89 35.8 163.71 35.18 163.5 34.57C161.6 29.04 157.23 25.6 153.71 26.82C153.41 26.97 153.11 27.13 152.83 27.32C151.32 26.07 149.5 25.29 147.57 25.05C145.64 24.81 143.69 25.12 141.93 25.96C140.63 26.44 139.4 27.1 138.28 27.92L138.28 27.25C137.92 21.09 134.43 16.26 130.48 16.56C129.51 16.6 128.58 16.95 127.81 17.55C126.13 16.27 124.13 15.5 122.04 15.32C119.95 15.15 117.86 15.57 116 16.56C114.11 17.32 112.38 18.44 110.91 19.87C108.59 14.73 104.16 11.72 100.8 13.24C99.56 14 98.59 15.13 98.01 16.47C97.42 17.8 97.26 19.29 97.53 20.73C97.53 20.43 97.31 20.13 97.14 19.83C94.6 14.67 89.83 11.89 86.57 13.54C85.64 14.06 84.9 14.88 84.45 15.86C82.84 15.2 81.1 14.91 79.37 15.03C77.63 15.15 75.94 15.68 74.44 16.56C72.6 17.52 70.98 18.87 69.71 20.53C67.13 16.06 62.92 13.67 59.92 15.1C56.92 16.52 55.84 21.09 57.25 25.9C53.72 21.29 48.63 19.27 45.53 21.49C44.32 22.7 43.51 24.27 43.24 25.98C42.97 27.68 43.25 29.43 44.03 30.96C40.02 26.86 34.74 25.53 31.96 28.05C29.19 30.57 29.91 35.83 33.3 40.27C32.89 40.14 32.46 40.04 32.03 39.97C26.25 39.08 21.1 41.46 20.55 45.27C20.41 46.05 20.44 46.84 20.64 47.6C20.84 48.36 21.19 49.07 21.69 49.68C20.9 49.48 20.08 49.46 19.29 49.62C18.49 49.78 17.74 50.12 17.09 50.6C14.18 53.02 14.77 58.62 18.33 63.22C16.4 65.38 15.18 68.09 14.84 70.97C14.51 72.69 14.54 74.46 14.92 76.17C15.29 77.88 16.01 79.49 17.02 80.91C15.95 81.46 15.05 82.29 14.42 83.33C13.78 84.36 13.44 85.55 13.43 86.77C13.7 89.79 16.7 92.07 21 92.73C20.19 93.1 19.47 93.65 18.9 94.34C18.33 95.04 17.94 95.86 17.74 96.74C17.12 100.62 21.43 104.56 27.33 105.52L28.44 105.52C27.66 106.55 27.27 107.83 27.36 109.13C27.72 113.1 32.94 115.75 39.01 115.29C38.48 115.9 38.08 116.63 37.85 117.41C37.62 118.19 37.56 119.02 37.67 119.83C38.36 123.6 43.61 125.76 49.38 124.66C50.27 124.5 51.13 124.24 51.96 123.9C51.19 125.23 50.85 126.77 50.99 128.31C51.12 129.85 51.72 131.31 52.71 132.48C55.06 134.73 59.24 134.07 63.12 131.19C64.22 132.83 65.75 134.13 67.53 134.94C69.32 135.75 71.29 136.05 73.23 135.79C75.21 135.75 77.16 135.31 78.97 134.5C78.97 134.93 79.17 135.36 79.3 135.76C81.16 141.62 85.82 145.36 89.41 144.14C90.24 143.82 90.98 143.32 91.58 142.66C92.18 142.01 92.62 141.22 92.87 140.36C93.13 140.83 93.36 141.29 93.65 141.75C96.75 146.42 101.68 148.38 104.65 146.52C105.39 146.01 105.97 145.28 106.31 144.43C106.53 145.21 106.92 145.92 107.44 146.52C107.97 147.12 108.62 147.6 109.34 147.91C112.05 148.91 115.28 146.99 117.47 143.51C117.63 144.06 117.88 144.57 118.22 145.03C120.53 148.05 126.14 147.55 130.74 143.94C131.79 143.11 132.73 142.15 133.55 141.09C134.79 146.49 138.41 150.3 142 149.73C143.38 149.33 144.62 148.51 145.55 147.39C146.47 146.27 147.06 144.9 147.22 143.44C147.74 144.6 148.67 145.52 149.83 146.02C153.28 147.35 157.75 144.04 159.81 138.61C160.36 139.59 161.23 140.36 162.26 140.79C165.85 142.18 170.51 138.71 172.63 133.04C173.14 133.78 173.84 134.36 174.65 134.73C178.11 136.19 182.68 132.94 184.9 127.54C185.73 125.49 186.09 123.27 185.94 121.05C190.28 122.48 194.49 121.62 195.73 118.77C196.97 115.92 195.73 112.61 192.46 109.96L192.46 109.76C193.82 109.58 195.15 109.21 196.41 108.66C201.89 106.35 205.15 101.54 203.65 97.93Z" fill="#ECE2AC" fill-opacity="1.000000" fill-rule="nonzero"/>
	<path id="Vector" d="M164.87 68.49C165.06 68.06 165.26 67.66 165.42 67.2C167.44 61.86 166.3 56.47 162.88 55.14C161.94 54.85 160.95 54.81 160 55.02C159.05 55.23 158.16 55.68 157.43 56.33C158.93 51.6 157.92 46.99 154.92 45.74C154.18 45.47 153.39 45.37 152.61 45.46C151.83 45.54 151.08 45.81 150.42 46.23C149.26 43.53 147.15 41.37 144.51 40.17C143.1 39.47 141.57 39.01 140.01 38.81C140.23 37.86 140.15 36.87 139.78 35.96C138.38 32.65 133.06 31.59 127.87 33.78C126.8 34.24 125.78 34.83 124.84 35.53C124.57 34.53 124.2 33.55 123.73 32.62C121.22 27.78 116.68 25.2 113.59 26.86C113.59 26.69 113.59 26.56 113.59 26.39C113.04 25.19 112.06 24.24 110.85 23.74C110.47 23.07 109.95 22.49 109.32 22.05C108.69 21.61 107.98 21.31 107.22 21.19C106.23 21.17 105.25 21.4 104.37 21.87C103.49 22.34 102.74 23.03 102.2 23.88L101.12 24.21C99.36 24.98 97.76 26.11 96.42 27.52C94.24 22.65 89.9 19.83 86.83 21.19C85.64 21.89 84.68 22.94 84.1 24.21C83.51 25.48 83.33 26.9 83.57 28.28C83.57 27.98 83.34 27.68 83.21 27.42C80.8 22.39 76.3 19.87 73.2 21.33C72.66 21.62 72.18 22.02 71.79 22.5C71.41 22.99 71.12 23.54 70.95 24.14C69.47 23.66 67.91 23.49 66.37 23.65C64.82 23.81 63.33 24.29 61.98 25.07C59.81 26.12 57.97 27.76 56.66 29.8C55.83 28.49 54.61 27.48 53.18 26.93C51.75 26.37 50.18 26.3 48.7 26.72C45.73 28.08 44.78 32.59 46.32 37.26C43.06 32.69 38 30.63 35.03 32.82C32.06 35 32.19 40.3 35.23 45.01C34.09 44.22 32.75 43.8 31.38 43.8C30 43.8 28.66 44.22 27.53 45.01C24.75 47.52 25.64 53.05 29.49 57.39C29.68 57.63 29.91 57.79 30.1 58.02C24.89 57.46 20.32 59.61 19.86 63.06C19.47 65.81 21.72 68.56 25.24 70.08C22.99 72.6 23.65 77.63 27 81.8C28.2 83.32 29.69 84.57 31.38 85.48C31.1 86.32 30.89 87.19 30.76 88.06C29.97 93.69 32.26 98.7 35.85 99.23C36.07 99.26 36.3 99.26 36.53 99.23C36.92 102.74 41.36 105.15 46.64 104.89C46.45 108.4 50.36 111.84 55.71 112.74C56.8 112.85 57.89 112.85 58.98 112.74C60.28 115.69 64.62 117.57 69.58 117.11C70.21 117.05 70.84 116.95 71.47 116.81C72.35 120.12 77.15 122.11 82.43 121.12C83.47 120.89 84.48 120.57 85.46 120.16C85.34 120.97 85.4 121.81 85.64 122.59C85.89 123.38 86.31 124.1 86.87 124.7C89.48 127.25 94.73 125.95 98.58 121.81L98.94 121.38C101.23 123.17 104.08 124.06 106.96 123.87C109.52 123.92 112.03 123.2 114.17 121.78C116.23 126.19 119.91 128.84 123.01 127.81C126.11 126.78 127.58 122.44 126.67 117.61L127.09 118.37C130.03 122.77 134.69 124.79 137.5 122.87C138.24 122.29 138.81 121.51 139.17 120.63C139.52 119.75 139.64 118.78 139.52 117.84C139.9 118.18 140.34 118.45 140.82 118.63C144.09 119.83 148.1 116.71 149.89 111.65C150.12 111 150.31 110.33 150.45 109.66C153.1 109.49 155.63 108.48 157.69 106.78C159.77 105.2 161.33 103.03 162.19 100.55C165.65 99.72 167.77 94.75 166.92 89.16C166.66 87.29 166.04 85.48 165.1 83.86C166 82.73 166.72 81.45 167.21 80.08C169.24 74.95 168.16 69.75 164.87 68.49Z" fill="#FCFBE6" fill-opacity="1.000000" fill-rule="nonzero"/>
	<path id="Vector" d="M105.56 91.91C108.27 81.97 97.04 70.24 80.54 65.61C64.03 60.97 48.44 65.21 45.66 75.08C42.89 84.95 54.15 96.71 70.69 101.35C87.23 105.98 102.85 101.78 105.56 91.91Z" fill="#FFFFFF" fill-opacity="1.000000" fill-rule="nonzero"/>
	<path id="Vector" d="M3 53.95C13.43 39.74 52.19 -4.11 94.04 0.29C135.9 4.7 204.01 30.33 212.66 98.96C218.82 148.01 203.1 124.6 173.51 109.59C143.92 94.59 75.22 61 30.85 63.65C-13.51 66.3 3 53.95 3 53.95Z" fill="#E61300" fill-opacity="1.000000" fill-rule="nonzero"/>
	<path id="Vector" d="M208.32 123.24C205.25 123.24 199.51 119.56 192.89 115.32C187.01 111.42 180.93 107.83 174.69 104.56C114.17 73.79 67.42 58.19 35.88 58.19C34.12 58.19 32.36 58.19 30.63 58.35C26.55 58.59 22.8 58.72 19.54 58.72C4.04 58.72 2.54 55.94 2.54 55.9C2.93 54.9 3.62 54.03 4.5 53.42L4.79 53.19L5.02 52.86C6.68 50.7 44.66 0 88.08 0C89.97 0 91.87 0.09 93.75 0.29C104.58 1.42 199.64 13.84 210.08 96.67C211.94 111.48 211.81 120.22 209.69 122.68C209.52 122.87 209.31 123.03 209.07 123.13C208.83 123.22 208.58 123.26 208.32 123.24Z" fill="#F4493A" fill-opacity="1.000000" fill-rule="nonzero"/>
	<path id="Vector" d="M94.04 0.29C52.19 -4.11 13.44 39.74 3 53.95C2.64 54.22 2.3 54.52 1.99 54.84C7.58 54.62 13.15 54 18.66 52.99C60.58 45.44 124.51 61.17 154.43 74.52C184.34 87.87 208.45 88.23 201.83 64.58C178.99 21.36 127.84 3.87 94.04 0.29Z" fill="#FF685A" fill-opacity="1.000000" fill-rule="nonzero"/>
	<g opacity="0.300000">
		<path id="Vector" d="M81.16 8.51C84.81 5.59 88.76 2.84 92.71 0.19C91.27 0.19 89.87 0.19 88.43 0.19C64.96 16.69 45.47 38.38 31.44 63.62L33.82 63.62C45.91 42.29 61.99 23.56 81.16 8.51Z" fill="#FFFFFF" fill-opacity="1.000000" fill-rule="nonzero"/>
		<path id="Vector" d="M75.42 69.55C80.77 61.9 86.69 54.68 93.13 47.95C97.97 42.81 103.13 38 108.6 33.55C119.09 25.55 130.35 18.64 142.19 12.91C140.01 11.99 137.86 11.12 135.67 10.33C130.9 12.74 126.3 15.49 121.9 18.54C115.95 22.17 110.25 26.21 104.84 30.63C99.47 35.03 94.42 39.82 89.74 44.97C83.38 51.79 77.63 59.16 72.55 67L71.6 68.52L75.35 69.52L75.42 69.55Z" fill="#FFFFFF" fill-opacity="1.000000" fill-rule="nonzero"/>
		<path id="Vector" d="M57.47 65.54C66.44 52.06 76.89 39.66 88.63 28.58C94.92 22.58 101.63 17.05 108.69 12.02C112.41 9.57 116.26 7.28 120.17 5.13C117.43 4.5 114.56 3.84 111.82 3.31C110 4.43 108.14 5.53 106.37 6.62C99.12 11.59 92.26 17.13 85.85 23.18C72.95 35.34 61.88 49.37 53 64.81L57.47 65.54Z" fill="#FFFFFF" fill-opacity="1.000000" fill-rule="nonzero"/>
		<path id="Vector" d="M56.63 7.88C48.95 11.69 41.68 16.28 34.93 21.59C23.89 34.18 14.35 48.06 6.52 62.92C8.03 63.23 9.55 63.45 11.08 63.59L12.13 61.67C24.68 41.91 39.63 23.84 56.63 7.88Z" fill="#FFFFFF" fill-opacity="1.000000" fill-rule="nonzero"/>
		<path id="Vector" d="M209.39 83.19C199.68 85.17 190.36 88.8 181.83 93.93C176.2 97.44 170.85 101.38 165.81 105.72L167.7 106.64C179.71 97.44 194.68 92.5 211.03 89.72C210.57 87.5 210.02 85.35 209.39 83.19Z" fill="#FFFFFF" fill-opacity="1.000000" fill-rule="nonzero"/>
		<path id="Vector" d="M207.21 76.37C205.88 72.76 204.33 69.23 202.58 65.81C180.72 70.84 161.08 80.38 146.47 96.38L148.85 97.5C164.31 84.52 184.86 78.82 207.21 76.37Z" fill="#FFFFFF" fill-opacity="1.000000" fill-rule="nonzero"/>
		<path id="Vector" d="M213.44 105.98C213.44 105.02 213.25 104.06 213.15 103C203.13 105.86 193.59 110.21 184.83 115.92L186.82 117.18C195.07 112.07 204.05 108.3 213.44 105.98Z" fill="#FFFFFF" fill-opacity="1.000000" fill-rule="nonzero"/>
		<path id="Vector" d="M108.59 56.3C124.31 41.69 142.88 30.61 163.1 23.78C160.23 21.99 157.33 20.46 154.39 18.74C131.97 26.21 112.2 40.22 97.57 59.02C94.01 63.46 90.83 68.2 88.07 73.19L92.12 74.48C97.12 67.98 102.63 61.9 108.59 56.3Z" fill="#FFFFFF" fill-opacity="1.000000" fill-rule="nonzero"/>
		<path id="Vector" d="M195.73 54.21C194.32 52.23 192.89 50.34 191.39 48.48C165 52.99 141.28 64.08 124.28 86.57L129.27 88.69C147.61 69.75 170.58 59.31 195.73 54.21Z" fill="#FFFFFF" fill-opacity="1.000000" fill-rule="nonzero"/>
		<path id="Vector" d="M181.21 37.72C179.81 36.43 178.37 35.14 176.9 33.91C149.6 41.53 125.1 56.37 108.14 80.28L110.88 81.34C128.82 59.25 153.74 45.07 181.21 37.72Z" fill="#FFFFFF" fill-opacity="1.000000" fill-rule="nonzero"/>
	</g>
	<path id="Vector" d="M142.13 18.44C142.81 13.94 128.49 7.98 110.13 5.2C91.76 2.41 76.36 3.67 75.68 8.18C74.99 12.68 90.55 10.49 108.92 13.34C127.28 16.19 141.44 22.95 142.13 18.44Z" fill="#FFFFFF" fill-opacity="1.000000" fill-rule="nonzero"/>
	<path id="Vector" d="M200.88 83.16C204.34 80.25 199.77 68.95 190.74 57.96C181.7 46.96 171.55 40.4 168.1 43.32C164.64 46.23 180.4 49.54 184.41 63.19C191.55 86.8 197.46 86.11 200.88 83.16Z" fill="#FFFFFF" fill-opacity="1.000000" fill-rule="nonzero"/>
</svg>
