<svg width="40.000000" height="32.000000" viewBox="0 0 40 32" fill="none" xmlns="http://www.w3.org/2000/svg" xmlns:xlink="http://www.w3.org/1999/xlink">
	<desc>
			Created with Pixso.
	</desc>
	<defs>
		<clipPath id="clip1203_16152">
			<rect id="Asset 17" width="40.000000" height="32.000000" fill="white" fill-opacity="0"/>
		</clipPath>
		<linearGradient id="paint_linear_1203_16163_0" x1="15.138584" y1="4.362056" x2="29.377735" y2="20.339909" gradientUnits="userSpaceOnUse">
			<stop stop-color="#FFFFFF"/>
			<stop offset="1.000000" stop-color="#000000"/>
		</linearGradient>
	</defs>
	<rect id="Asset 17" width="40.000000" height="32.000000" fill="#FFFFFF" fill-opacity="0"/>
	<g clip-path="url(#clip1203_16152)">
		<path id="Vector" d="M31.46 28.42C31.59 26.15 27.29 24.07 21.87 23.77C16.45 23.46 11.95 25.05 11.83 27.31C11.7 29.57 15.99 31.65 21.42 31.96C26.84 32.27 31.34 30.68 31.46 28.42Z" fill="#B8B5AA" fill-opacity="1.000000" fill-rule="nonzero"/>
		<path id="Vector" d="M12.25 27.01C12.25 28.6 15.72 29.9 20 29.9C24.27 29.9 27.74 28.6 27.74 27.01C27.74 25.42 24.27 19.39 20 19.39C15.72 19.39 12.25 25.41 12.25 27.01Z" fill="#9C5723" fill-opacity="1.000000" fill-rule="nonzero"/>
		<path id="Vector" d="M40 7.44C40 3.33 31.04 0 20 0C8.95 0 0 3.33 0 7.44C0 11.56 8.95 27.12 20 27.12C31.04 27.12 40 11.56 40 7.44Z" fill="#B4703D" fill-opacity="1.000000" fill-rule="nonzero"/>
		<g opacity="0.500000">
			<path id="Vector" d="M2.24 4.42C1 6.07 0.48 7.84 0.92 9.49C1.99 13.48 11.44 27.02 18.1 25.2C24.75 23.39 26.11 6.89 25.04 2.93C24.83 2.16 24.44 1.45 23.89 0.88C22.48 0.76 21.02 0.7 19.52 0.7C12.15 0.71 5.72 2.21 2.24 4.42Z" fill="#B4703D" fill-opacity="1.000000" fill-rule="nonzero"/>
		</g>
		<path id="Vector" d="M40 7.44C40 3.33 31.04 0 20 0C8.95 0 0 3.33 0 7.44C0 11.56 8.95 14.9 20 14.9C31.04 14.9 40 11.56 40 7.44Z" fill="#E6BE8A" fill-opacity="1.000000" fill-rule="nonzero"/>
		<path id="Vector" d="M38.76 7.2C38.76 10.79 30.36 13.7 20 13.7C9.63 13.7 1.23 10.79 1.23 7.2C1.23 3.62 9.63 0.71 20 0.71C30.36 0.71 38.76 3.62 38.76 7.2Z" fill="#B4703D" fill-opacity="1.000000" fill-rule="evenodd"/>
		<path id="Vector" d="M20 13.72C27.46 13.72 34.06 12.12 37.05 9.88C36.43 6.83 28.87 4.34 20 4.34C11.12 4.34 3.56 6.83 2.94 9.86C5.93 12.1 12.53 13.72 20 13.72Z" fill="#D6B300" fill-opacity="1.000000" fill-rule="nonzero"/>
		<g opacity="0.600000">
			<path id="Vector" d="M5.72 11.36C9.18 12.78 14.34 13.72 20 13.72C26.81 13.72 32.9 12.39 36.19 10.45C33.99 7.75 28.04 5.75 21.25 5.75C13.69 5.73 7.17 8.2 5.72 11.36Z" fill="url(#paint_linear_1203_16163_0)" fill-opacity="1.000000" fill-rule="nonzero"/>
		</g>
		<path id="Vector" d="M2.95 10.62C2.8 11.12 4.76 12.18 7.35 12.99C9.94 13.8 12.15 14.05 12.3 13.56C12.45 13.06 10.21 12.9 7.63 12.09C5.05 11.28 3.1 10.12 2.95 10.62Z" fill="#FFFFFF" fill-opacity="1.000000" fill-rule="nonzero"/>
		<path id="Vector" d="M7.88 16.38C7.19 15.36 6.4 14.69 6.11 14.89C5.83 15.09 6.14 16.08 6.81 17.11C7.49 18.13 8.29 18.79 8.58 18.59C8.86 18.4 8.56 17.4 7.88 16.38Z" fill="#FFFFFF" fill-opacity="1.000000" fill-rule="nonzero"/>
		<path id="Vector" d="M10.05 19.75C9.65 19.42 9.2 19.31 9.06 19.48C8.91 19.65 9.12 20.08 9.52 20.41C9.92 20.74 10.37 20.85 10.52 20.68C10.66 20.51 10.46 20.09 10.05 19.75Z" fill="#FFFFFF" fill-opacity="1.000000" fill-rule="nonzero"/>
		<path id="Vector" d="M14.12 27.45C13.68 27.16 13.24 27.08 13.1 27.27C12.96 27.46 13.21 27.86 13.65 28.16C14.08 28.45 14.53 28.53 14.66 28.34C14.79 28.15 14.53 27.75 14.12 27.45Z" fill="#FFFFFF" fill-opacity="1.000000" fill-rule="nonzero"/>
		<path id="Vector" d="M23.09 6.99C22.42 7.16 21.92 7.52 21.99 7.78C22.06 8.04 22.66 8.11 23.34 7.93C24.01 7.76 24.51 7.41 24.44 7.15C24.38 6.89 23.78 6.82 23.09 6.99ZM23.27 7.68C22.75 7.82 22.29 7.79 22.25 7.62C22.21 7.45 22.59 7.2 23.13 7.07C23.67 6.94 24.11 6.97 24.16 7.13C24.2 7.3 23.78 7.55 23.27 7.68Z" fill="#7FA100" fill-opacity="1.000000" fill-rule="nonzero"/>
		<path id="Vector" d="M28.88 8.94C28.13 8.59 27.41 8.54 27.27 8.83C27.14 9.12 27.64 9.64 28.39 9.99C29.15 10.35 29.86 10.4 30 10.1C30.14 9.81 29.64 9.29 28.88 8.94ZM28.53 9.71C27.94 9.44 27.54 9.06 27.65 8.88C27.75 8.69 28.27 8.76 28.86 9.03C29.44 9.3 29.84 9.68 29.74 9.87C29.63 10.06 29.11 9.99 28.53 9.71Z" fill="#7FA100" fill-opacity="1.000000" fill-rule="nonzero"/>
		<path id="Vector" d="M15.97 10.09C15.45 10.12 15.05 10.37 15.05 10.65C15.06 10.92 15.5 11.12 16 11.09C16.5 11.06 16.92 10.81 16.91 10.53C16.9 10.26 16.48 10.06 15.97 10.09ZM15.99 10.82C15.59 10.84 15.27 10.72 15.26 10.54C15.26 10.36 15.57 10.19 15.97 10.17C16.37 10.15 16.69 10.27 16.7 10.46C16.71 10.64 16.38 10.8 15.99 10.82Z" fill="#7FA100" fill-opacity="1.000000" fill-rule="nonzero"/>
		<path id="Vector" d="M15.47 7.37L15.4 7.43C15.57 7.58 15.66 7.72 15.62 7.81C15.57 7.9 15.08 7.89 14.59 7.65L14.49 7.59C14.29 7.54 14.12 7.43 13.98 7.28C13.84 7.14 13.74 6.96 13.69 6.76C13.64 6.78 13.59 6.82 13.56 6.87C13.43 7.12 13.85 7.57 14.48 7.88C15.11 8.2 15.71 8.26 15.83 8.02C15.91 7.86 15.76 7.61 15.47 7.37Z" fill="#7FA100" fill-opacity="1.000000" fill-rule="nonzero"/>
		<path id="Vector" d="M10.74 9.02C10.3 8.76 9.86 8.69 9.76 8.86C9.67 9.03 9.94 9.38 10.39 9.63C10.83 9.88 11.27 9.95 11.37 9.79C11.46 9.62 11.18 9.27 10.74 9.02ZM10.48 9.46C10.14 9.26 9.91 9.02 9.98 8.9C10.05 8.79 10.37 8.86 10.71 9.06C11.05 9.25 11.28 9.5 11.22 9.61C11.16 9.73 10.83 9.66 10.48 9.47L10.48 9.46Z" fill="#7FA100" fill-opacity="1.000000" fill-rule="nonzero"/>
		<path id="Vector" d="M5.87 9.43C5.46 9.61 5.19 9.87 5.26 10.04C5.33 10.22 5.7 10.18 6.14 10C6.58 9.82 6.82 9.56 6.75 9.39C6.68 9.22 6.28 9.25 5.87 9.43ZM6.05 9.84C5.74 9.99 5.45 10.02 5.4 9.91C5.35 9.81 5.58 9.62 5.89 9.47C6.21 9.33 6.5 9.3 6.54 9.4C6.59 9.5 6.37 9.71 6.05 9.84Z" fill="#7FA100" fill-opacity="1.000000" fill-rule="nonzero"/>
		<path id="Vector" d="M19.16 6.08L19.07 6.13C18.63 6.33 18.25 6.39 18.19 6.25C18.13 6.11 18.42 5.84 18.84 5.63L19 5.56L19 5.5C18.94 5.52 18.89 5.54 18.83 5.57C18.28 5.83 17.91 6.21 18.01 6.43C18.11 6.64 18.64 6.6 19.19 6.34L19.29 6.28C19.24 6.22 19.2 6.16 19.16 6.08Z" fill="#7FA100" fill-opacity="1.000000" fill-rule="nonzero"/>
		<path id="Vector" d="M12.88 11.66C12.93 11.81 12.93 11.93 12.88 12C12.83 12.06 12.48 12 12.15 11.78L11.6 11.81C12.21 12.35 12.83 12.6 13.07 12.37C13.2 12.24 13.18 11.96 13.03 11.62L12.88 11.66Z" fill="#7FA100" fill-opacity="1.000000" fill-rule="nonzero"/>
		<path id="Vector" d="M23.25 12.56C22.98 12.64 22.77 12.64 22.73 12.56C22.69 12.48 22.95 12.17 23.35 11.97C23.75 11.78 24.13 11.73 24.19 11.85C24.25 11.98 24.19 12.01 24.07 12.1L24.16 12.1C24.22 12.09 24.29 12.09 24.35 12.1C24.39 12.06 24.42 12.02 24.43 11.96C24.45 11.91 24.45 11.85 24.43 11.8C24.34 11.6 23.83 11.64 23.32 11.9C22.8 12.16 22.43 12.52 22.55 12.72C22.66 12.92 22.87 12.87 23.18 12.8C23.18 12.72 23.21 12.64 23.25 12.56Z" fill="#7FA100" fill-opacity="1.000000" fill-rule="nonzero"/>
		<path id="Vector" d="M26.99 6.23C26.96 6.34 26.92 6.45 26.88 6.56C26.7 7 26.44 7.31 26.29 7.25C26.15 7.2 26.19 6.79 26.37 6.35C26.41 6.25 26.45 6.16 26.5 6.07L26.44 6.03C26.4 6.12 26.35 6.21 26.3 6.31C26.07 6.89 26.06 7.43 26.27 7.52C26.49 7.61 26.86 7.22 27.09 6.63C27.15 6.49 27.2 6.34 27.24 6.19C27.16 6.21 27.07 6.22 26.99 6.23Z" fill="#7FA100" fill-opacity="1.000000" fill-rule="nonzero"/>
		<path id="Vector" d="M34.46 9.71C34.43 9.64 34.39 9.59 34.34 9.55C34.28 9.51 34.22 9.48 34.16 9.47L34.12 9.47L33.88 9.54C33.99 9.57 34.07 9.62 34.09 9.68C34.15 9.89 33.67 10.2 33.04 10.38C32.66 10.52 32.24 10.53 31.86 10.41C31.73 10.44 31.6 10.47 31.47 10.49C31.47 10.5 31.47 10.51 31.47 10.52C31.56 10.84 32.3 10.91 33.12 10.69C33.94 10.46 34.54 10.03 34.46 9.71Z" fill="#7FA100" fill-opacity="1.000000" fill-rule="nonzero"/>
		<path id="Vector" d="M29.9 6.91C29.2 6.91 28.64 7.12 28.64 7.39C28.63 7.66 29.19 7.87 29.89 7.88C30.59 7.88 31.15 7.67 31.16 7.41C31.16 7.14 30.59 6.92 29.9 6.91ZM29.9 7.62C29.36 7.62 28.93 7.47 28.93 7.3C28.93 7.12 29.37 6.99 29.9 6.99C30.44 7 30.87 7.14 30.87 7.31C30.87 7.49 30.43 7.62 29.9 7.62L29.9 7.62Z" fill="#7FA100" fill-opacity="1.000000" fill-rule="nonzero"/>
		<path id="Vector" d="M24.04 9.59C24.43 9.26 24.78 9.12 24.92 9.25C25.06 9.38 25.03 9.55 24.95 9.83C25.11 9.9 25.26 9.99 25.39 10.1C25.6 9.56 25.62 9.11 25.39 8.92C25.09 8.68 24.44 8.96 23.79 9.57L24.04 9.59Z" fill="#7FA100" fill-opacity="1.000000" fill-rule="nonzero"/>
		<path id="Vector" d="M21.93 11.07L21.89 11C21.04 11.33 20.3 11.39 20.18 11.11C20.05 10.83 20.53 10.38 21.25 9.99C21.22 9.95 21.19 9.9 21.17 9.86C20.18 10.38 19.56 11.07 19.75 11.49C19.93 11.9 21.02 11.9 22.18 11.43C22.09 11.31 22.01 11.19 21.93 11.07Z" fill="#7FA100" fill-opacity="1.000000" fill-rule="nonzero"/>
		<path id="Vector" d="M27.34 12.64C26.71 12.33 26.28 11.94 26.37 11.73C26.46 11.51 27.15 11.54 27.89 11.86C28.04 11.92 28.19 12 28.33 12.08C28.38 12.06 28.43 12.05 28.48 12.03C28.3 11.92 28.12 11.83 27.92 11.75C26.97 11.35 26.06 11.31 25.91 11.69C25.75 12.07 26.22 12.48 26.93 12.87C27.07 12.8 27.21 12.72 27.34 12.64Z" fill="#7FA100" fill-opacity="1.000000" fill-rule="nonzero"/>
		<path id="Vector" d="M19.05 12.28C18.61 12.23 18.21 12.34 18.17 12.51C18.14 12.69 18.51 12.87 18.97 12.91C19.43 12.96 19.81 12.84 19.85 12.67C19.88 12.51 19.51 12.32 19.05 12.28ZM19 12.74C18.65 12.7 18.37 12.58 18.38 12.47C18.39 12.35 18.69 12.29 19.04 12.33C19.4 12.36 19.68 12.48 19.67 12.59C19.66 12.7 19.37 12.78 19 12.74Z" fill="#7FA100" fill-opacity="1.000000" fill-rule="nonzero"/>
		<g opacity="0.500000">
			<path id="Vector" d="M19.82 5.75C20.76 5.48 20.94 4.79 23.56 5.34C26.17 5.89 25.92 5.89 24.53 6.65C23.14 7.4 23.86 6.99 21.48 6.92C16.89 6.79 19.82 5.75 19.82 5.75Z" fill="#FCFBE6" fill-opacity="1.000000" fill-rule="nonzero"/>
		</g>
		<path id="Vector" d="M23.42 6.77C23.3 6.77 23.19 6.75 23.07 6.73C22.54 6.65 22.01 6.61 21.47 6.59C19.17 6.53 19.08 6.23 19.08 6.23C19.08 6.15 19.43 5.91 19.87 5.75C20.09 5.68 20.3 5.59 20.5 5.49C20.92 5.25 21.4 5.13 21.88 5.15C22.42 5.16 22.96 5.23 23.48 5.34C24.11 5.45 24.73 5.6 25.32 5.81C25.11 5.96 24.89 6.09 24.66 6.19L24.41 6.33C23.78 6.67 23.61 6.77 23.42 6.77Z" fill="#FCFBE6" fill-opacity="1.000000" fill-rule="nonzero"/>
		<g opacity="0.500000">
			<path id="Vector" d="M19.47 10.65C17.77 11.15 19 11.85 14.28 10.9C9.56 9.95 10.72 9.25 10.96 9.13C13.29 7.75 12.09 8.61 16.37 8.71C24.6 8.85 19.47 10.65 19.47 10.65Z" fill="#FCFBE6" fill-opacity="1.000000" fill-rule="nonzero"/>
		</g>
		<path id="Vector" d="M17.61 10.62C16.5 10.59 15.4 10.45 14.32 10.18C11.83 9.68 11.2 9.29 11.04 9.14L11.12 9.09C12 8.56 12.34 8.39 12.64 8.37C12.86 8.36 13.08 8.37 13.3 8.41C14.3 8.59 15.32 8.68 16.34 8.69C19.64 8.76 20.43 9.1 20.62 9.22C20.23 9.53 19.79 9.76 19.32 9.9C18.97 10 18.64 10.15 18.33 10.34C18.13 10.51 17.88 10.61 17.61 10.62Z" fill="#FCFBE6" fill-opacity="1.000000" fill-rule="nonzero"/>
		<g opacity="0.500000">
			<path id="Vector" d="M33.41 7.76C33.12 7.38 32.12 8.52 30.5 9.77C28.87 11.02 26.87 11.6 27.25 11.9C27.81 12.34 31 11.9 32.62 10.65C34.24 9.39 34.26 8.88 33.41 7.76Z" fill="#FCFBE6" fill-opacity="1.000000" fill-rule="nonzero"/>
		</g>
		<path id="Vector" d="M30.5 9.77C29.33 10.66 27.98 11.22 27.42 11.57C28.11 11.81 30.71 11.24 32.12 10.15C33.53 9.07 33.66 8.59 33.04 7.74C32.59 7.97 31.71 8.85 30.5 9.77Z" fill="#FCFBE6" fill-opacity="1.000000" fill-rule="nonzero"/>
	</g>
</svg>
