<svg width="209.000000" height="280.000000" viewBox="0 0 209 280" fill="none" xmlns="http://www.w3.org/2000/svg" xmlns:xlink="http://www.w3.org/1999/xlink">
	<desc>
			Created with Pixso.
	</desc>
	<defs>
		<clipPath id="clip1203_15583">
			<rect id="Asset 14" width="209.000000" height="280.000000" fill="white" fill-opacity="0"/>
		</clipPath>
		<linearGradient id="paint_linear_1203_15594_0" x1="80.320801" y1="22.610542" x2="151.390579" y2="101.552422" gradientUnits="userSpaceOnUse">
			<stop stop-color="#FFFFFF"/>
			<stop offset="1.000000" stop-color="#000000"/>
		</linearGradient>
	</defs>
	<rect id="Asset 14" width="209.000000" height="280.000000" fill="#FFFFFF" fill-opacity="0"/>
	<g clip-path="url(#clip1203_15583)">
		<path id="Vector" d="M205.57 248.52C206.69 229.02 168.81 210.6 120.99 207.97C73.17 205.34 33.52 219.28 32.45 239.11C31.37 258.94 69.21 277.02 117.03 279.65C164.85 282.29 204.54 268.45 205.57 248.52Z" fill="#B8B5AA" fill-opacity="1.000000" fill-rule="nonzero"/>
		<path id="Vector" d="M36.17 236.43C36.17 250.32 66.76 269.37 104.69 269.37C142.62 269.37 173.22 250.32 173.22 236.43C173.22 222.54 142.62 169.87 104.69 169.87C66.76 169.87 36.17 222.49 36.17 236.43Z" fill="#9C5723" fill-opacity="1.000000" fill-rule="nonzero"/>
		<path id="Vector" d="M209 38.54C209 23.14 161.91 0.58 104.5 0.58C47.08 0.58 0 23.14 0 38.54C0 74.45 0 237.41 104.5 237.41C209 237.41 209 74.45 209 38.54Z" fill="#B4703D" fill-opacity="1.000000" fill-rule="nonzero"/>
		<g opacity="0.500000">
			<path id="Vector" d="M21.14 38.98C15.12 53.31 16.83 43.17 13.6 57.4C4.89 96.38 31.66 207.83 66.02 217.82C135.18 237.85 124.17 64.66 119.03 29.96C118.05 23.39 127.94 13.49 125.3 8.38C118.33 7.33 111.3 6.81 104.25 6.82C68.81 6.82 37.83 19.78 21.14 38.98Z" fill="#B4703D" fill-opacity="1.000000" fill-rule="nonzero"/>
		</g>
		<path id="Vector" d="M209 38.54C209 17.25 162.2 0 104.5 0C46.79 0 0 17.25 0 38.54C0 59.83 46.79 77.08 104.5 77.08C162.2 77.08 209 59.83 209 38.54Z" fill="#E6BE8A" fill-opacity="1.000000" fill-rule="nonzero"/>
		<path id="Vector" d="M104.5 68.22C53.84 68.22 10.76 54.04 10.76 37.32C10.76 20.61 53.84 6.48 104.5 6.48C155.15 6.48 198.23 20.61 198.23 37.32C198.23 54.04 155.3 68.22 104.5 68.22Z" fill="#B4703D" fill-opacity="1.000000" fill-rule="nonzero"/>
		<path id="Vector" d="M104.5 68.22C141.74 68.22 174.78 60.62 189.71 49.94C186.58 35.57 148.84 23.78 104.5 23.78C60.15 23.78 22.41 35.52 19.28 49.89C34.26 60.57 67.25 68.22 104.5 68.22Z" fill="#ECE2AC" fill-opacity="1.000000" fill-rule="nonzero"/>
		<g opacity="0.600000">
			<path id="Vector" d="M33.13 57.01C56.07 64.89 80.23 68.69 104.5 68.22C138.76 68.22 168.96 61.83 185.4 52.62C174.39 39.81 144.68 30.35 110.76 30.35C73.02 30.3 40.47 42 33.13 57.01Z" fill="url(#paint_linear_1203_15594_0)" fill-opacity="1.000000" fill-rule="nonzero"/>
		</g>
		<path id="Vector" d="M19.23 54.18C18.45 56.67 28.29 61.88 41.21 65.93C54.13 69.97 65.19 71.19 65.97 68.75C66.76 66.32 55.5 65.49 42.58 61.49C29.66 57.5 19.97 51.75 19.23 54.18Z" fill="#FFFFFF" fill-opacity="1.000000" fill-rule="nonzero"/>
		<path id="Vector" d="M31.12 99.26C29.36 88.63 25.59 80.45 22.51 80.93C19.43 81.42 18.25 90.44 19.92 101.01C21.58 111.59 25.5 119.77 28.58 119.29C31.66 118.8 32.84 109.83 31.12 99.26Z" fill="#FFFFFF" fill-opacity="1.000000" fill-rule="nonzero"/>
		<path id="Vector" d="M36.12 134.05C34.11 129.91 31.22 127.33 29.17 128.2C27.11 129.08 27.45 133.08 29.17 137.27C30.88 141.46 34.06 143.99 36.17 143.11C38.27 142.24 38.12 138.14 36.12 134.05Z" fill="#FFFFFF" fill-opacity="1.000000" fill-rule="nonzero"/>
		<path id="Vector" d="M52.66 240.33C48.84 237.8 44.83 237.06 43.7 238.77C42.58 240.47 44.68 243.64 48.6 246.47C52.51 249.3 56.38 249.73 57.56 248.03C58.73 246.32 56.43 242.91 52.66 240.33Z" fill="#FFFFFF" fill-opacity="1.000000" fill-rule="nonzero"/>
		<path id="Vector" d="M114.19 59.79L112.57 59.79L113.31 59.49L114.19 59.79Z" fill="#93B010" fill-opacity="1.000000" fill-rule="nonzero"/>
		<path id="Vector" d="M130.44 41.95L129.56 41.46L128.28 40.49C126.56 38.42 124.36 36.8 121.87 35.76C119.38 34.71 116.68 34.28 113.99 34.5C110.61 34.46 107.26 35.19 104.2 36.64L102.93 36.64C101.93 36.59 100.94 36.59 99.94 36.64C103.85 33.32 108.86 31.58 113.99 31.77C122.65 31.77 129.75 35.81 130.39 40.93C130.39 41.17 130.39 41.41 130.39 41.66L130.44 41.95Z" fill="#ADCC21" fill-opacity="1.000000" fill-rule="nonzero"/>
		<path id="Vector" d="M112.57 36.3C111.27 36.29 109.97 36.44 108.7 36.74C107.84 36.69 106.97 36.69 106.11 36.74L104.2 36.74C107.26 35.29 110.61 34.56 113.99 34.59C116.68 34.38 119.38 34.81 121.87 35.85C124.36 36.9 126.56 38.52 128.28 40.59C125.43 38.88 122.2 37.91 118.89 37.76C116.92 36.79 114.76 36.29 112.57 36.3Z" fill="#93B010" fill-opacity="1.000000" fill-rule="nonzero"/>
		<path id="Vector" d="M132.39 46.73C132.39 51.6 125.59 55.89 117.17 55.89C115.66 55.89 114.15 55.75 112.67 55.45C113.9 54.7 114.98 53.72 115.85 52.57C117.45 53 119.14 53 120.75 52.57C121.58 52.46 122.37 52.13 123.04 51.63C123.71 51.12 124.24 50.45 124.58 49.68C124.91 48.91 125.04 48.07 124.95 47.24C124.86 46.4 124.56 45.61 124.07 44.92C124.09 44.71 124.09 44.5 124.07 44.29C124.05 43.56 123.86 42.84 123.52 42.19C123.19 41.54 122.7 40.98 122.12 40.54C121.36 39.2 120.17 38.15 118.74 37.57C122.06 37.72 125.29 38.69 128.14 40.39L129.41 41.37C130.29 41.97 131.01 42.77 131.53 43.7C132.05 44.63 132.34 45.66 132.39 46.73Z" fill="#93B010" fill-opacity="1.000000" fill-rule="nonzero"/>
		<path id="Vector" d="M124.12 45.02C124.61 45.71 124.91 46.5 125 47.34C125.09 48.17 124.96 49.01 124.62 49.78C124.29 50.55 123.76 51.22 123.09 51.73C122.42 52.23 121.63 52.56 120.79 52.67C119.19 53.1 117.5 53.1 115.9 52.67C116.31 52.07 116.64 51.41 116.88 50.72C118.51 50.57 120.06 49.95 121.34 48.93C122.63 47.92 123.59 46.56 124.12 45.02Z" fill="#799400" fill-opacity="1.000000" fill-rule="nonzero"/>
		<path id="Vector" d="M96.42 40.05L95.24 40.39C94.51 40.69 93.87 41.16 93.36 41.76C92.85 42.35 92.49 43.07 92.32 43.83C92.15 44.6 92.16 45.39 92.37 46.15C92.57 46.91 92.95 47.61 93.48 48.19C94.78 49.66 96.48 50.73 98.37 51.26C100.26 51.8 102.27 51.78 104.15 51.21C104.65 51.02 105.11 50.76 105.52 50.43L106.99 50.43C107.56 50.48 108.13 50.48 108.7 50.43C109.87 50.75 111.07 50.95 112.28 51.01C108.68 53.76 104.23 55.17 99.7 55.01C91.87 55.01 85.36 51.41 84.57 46.82C84.55 46.5 84.55 46.17 84.57 45.85C84.77 44.32 85.38 42.88 86.34 41.67C87.29 40.46 88.56 39.53 90.01 38.98C93.06 37.54 96.41 36.82 99.8 36.88L100.04 36.88C101.04 36.83 102.03 36.83 103.03 36.88C100.54 37.21 98.22 38.32 96.42 40.05Z" fill="#93B010" fill-opacity="1.000000" fill-rule="nonzero"/>
		<path id="Vector" d="M99.06 48.19C100.98 49.5 103.21 50.27 105.52 50.43C105.11 50.76 104.65 51.02 104.15 51.21C102.27 51.78 100.26 51.8 98.37 51.26C96.48 50.73 94.78 49.66 93.48 48.19C92.95 47.61 92.57 46.91 92.37 46.15C92.16 45.39 92.15 44.6 92.32 43.83C92.49 43.07 92.85 42.35 93.36 41.76C93.87 41.16 94.51 40.69 95.24 40.39L96.42 40.05C95.62 40.9 95.15 42.01 95.1 43.17C95.23 44.29 95.67 45.35 96.37 46.23C97.07 47.12 98 47.79 99.06 48.19Z" fill="#799400" fill-opacity="1.000000" fill-rule="nonzero"/>
		<path id="Vector" d="M114.58 48.43C119.23 47.85 122.75 45.36 122.75 42.44C122.73 41.81 122.57 41.19 122.26 40.64C122.85 41.07 123.33 41.64 123.67 42.29C124.01 42.94 124.2 43.66 124.22 44.39C124.24 44.6 124.24 44.81 124.22 45.02C123.67 46.55 122.69 47.9 121.4 48.89C120.11 49.88 118.56 50.49 116.93 50.62C115.73 50.86 114.52 50.99 113.31 51.02L112.38 51.02C111.17 50.95 109.97 50.75 108.8 50.43C110.87 50.26 112.85 49.57 114.58 48.43Z" fill="#ADCC21" fill-opacity="1.000000" fill-rule="nonzero"/>
		<path id="Vector" d="M122.75 42.44C122.75 45.36 119.23 47.85 114.58 48.43C115.32 48.04 115.96 47.46 116.41 46.75C116.86 46.04 117.13 45.23 117.17 44.39C117.2 44.13 117.2 43.87 117.17 43.61C117.19 43.46 117.19 43.32 117.17 43.17C117.17 40.05 113.6 37.47 108.75 36.74C110 36.44 111.29 36.3 112.57 36.3C114.75 36.26 116.91 36.73 118.89 37.66C120.32 38.25 121.51 39.29 122.26 40.64C122.57 41.19 122.73 41.81 122.75 42.44Z" fill="#93B010" fill-opacity="1.000000" fill-rule="nonzero"/>
		<path id="Vector" d="M108.7 36.74C113.6 37.47 117.12 40.05 117.12 43.17C117.15 43.31 117.15 43.46 117.12 43.61C116.54 40.59 112.23 38.25 107.09 38.25C101.95 38.25 96.86 40.98 96.86 44.39C96.91 45.16 97.15 45.9 97.55 46.56C97.95 47.22 98.5 47.78 99.16 48.19C98.12 47.81 97.2 47.15 96.51 46.29C95.81 45.44 95.36 44.41 95.2 43.32C95.25 42.15 95.72 41.05 96.52 40.2C98.2 38.46 100.39 37.28 102.78 36.83L104.06 36.83L105.96 36.83C106.87 36.74 107.79 36.71 108.7 36.74Z" fill="#ADCC21" fill-opacity="1.000000" fill-rule="nonzero"/>
		<path id="Vector" d="M105.52 50.43L106.99 50.43C107.56 50.48 108.14 50.48 108.7 50.43C110.8 50.29 112.82 49.62 114.58 48.48C115.32 48.09 115.96 47.51 116.41 46.8C116.86 46.09 117.13 45.28 117.17 44.44C117.2 44.18 117.2 43.92 117.17 43.66C116.59 40.64 112.28 38.3 107.14 38.3C102 38.3 96.91 41.03 96.91 44.44C96.96 45.21 97.2 45.95 97.6 46.61C98 47.27 98.55 47.83 99.21 48.24C101.09 49.51 103.26 50.26 105.52 50.43ZM104.64 45.02C104.44 44.78 104.31 44.48 104.25 44.17C104.19 43.87 104.21 43.55 104.3 43.24C104.39 42.94 104.55 42.67 104.78 42.44C105 42.22 105.27 42.05 105.57 41.95C106.31 41.84 107.06 41.95 107.73 42.28C108.41 42.6 108.97 43.11 109.34 43.75C109.53 44.01 109.65 44.3 109.7 44.61C109.75 44.92 109.73 45.24 109.63 45.54C109.54 45.83 109.37 46.11 109.15 46.33C108.93 46.56 108.66 46.72 108.36 46.82C107.63 46.93 106.89 46.82 106.22 46.49C105.56 46.17 105.01 45.66 104.64 45.02Z" fill="#93B010" fill-opacity="1.000000" fill-rule="nonzero"/>
		<path id="Vector" d="M104.64 45.02C104.44 44.77 104.31 44.48 104.25 44.17C104.19 43.86 104.21 43.54 104.3 43.24C104.39 42.94 104.55 42.67 104.78 42.44C105 42.22 105.27 42.05 105.57 41.95C106.31 41.84 107.06 41.95 107.73 42.28C108.41 42.6 108.97 43.11 109.34 43.75C109.53 44.01 109.65 44.3 109.7 44.61C109.75 44.92 109.73 45.24 109.63 45.54C109.54 45.83 109.37 46.11 109.15 46.33C108.93 46.55 108.66 46.72 108.36 46.82C107.63 46.93 106.89 46.82 106.22 46.49C105.56 46.17 105.01 45.66 104.64 45.02Z" fill="#799400" fill-opacity="1.000000" fill-rule="nonzero"/>
		<path id="Vector" d="M103.96 40.15C103.96 39.37 105.52 38.2 108.02 37.57C110.52 36.93 112.67 37.03 112.91 37.57C113.16 38.1 110.71 37.57 108.02 38.2C105.33 38.83 104.2 40.88 103.96 40.15Z" fill="#FFFFFF" fill-opacity="1.000000" fill-rule="nonzero"/>
	</g>
</svg>
