<svg width="254.000000" height="261.000000" viewBox="0 0 254 261" fill="none" xmlns="http://www.w3.org/2000/svg" xmlns:xlink="http://www.w3.org/1999/xlink">
	<desc>
			Created with Pixso.
	</desc>
	<defs/>
	<path id="Vector" d="M253.94 214.2C255.56 185.23 200.04 158.79 129.93 154.71C59.83 150.62 1.66 171.28 0 200.05C-1.67 228.81 53.85 255.46 124.01 259.54C194.17 263.62 252.33 243.12 253.94 214.2Z" fill="#B8B5AA" fill-opacity="1.000000" fill-rule="nonzero"/>
	<path id="Vector" d="M114.75 0C52.28 0 1.61 19.39 1.61 43.32L1.61 188.41C1.61 222.92 52.23 250.88 114.75 250.88C177.26 250.88 227.77 222.92 227.77 188.41L227.77 43.32C227.77 19.39 177.16 0 114.75 0Z" fill="#030800" fill-opacity="1.000000" fill-rule="nonzero"/>
	<path id="Vector" d="M222.97 43.32C222.97 21.81 174.52 4.38 114.75 4.38C54.97 4.38 6.52 21.81 6.52 43.32C6.52 64.83 55.02 82.26 114.75 82.26C174.47 82.26 222.97 64.83 222.97 43.32Z" fill="#FCFBE6" fill-opacity="1.000000" fill-rule="nonzero"/>
	<path id="Vector" d="M75.26 168.76C97.79 166.39 84.78 152.79 81.03 146.54C64.33 137.58 67.32 133.5 73.59 126.85C75.92 114.4 80.27 114.25 71.41 113.19C64.43 106.54 61.29 112.89 68.78 105.49C68.78 105.03 76.17 107.15 58.2 102.06C56.03 101.81 56.13 101.2 61.14 96.72C66.76 91.03 64.23 94.91 51.02 92.64C60.48 89.47 26.67 81.66 22.01 78.99C8.09 70.93 3.79 73.19 8.25 150.57C8.79 163.07 10.1 175.52 12.19 187.85C13.21 194.84 15.29 201.64 18.37 208.01C22.11 209.92 38.62 224.28 43.68 225.23C62.25 239.94 59.83 230.83 72.28 231.43C70.5 239.89 86.04 233.04 103.26 232.99C104.11 229.77 76.98 219.79 74.3 217.53C71.62 215.26 93.38 220.75 109.73 215.91C96.06 208.48 83.05 199.88 70.86 190.22C90.09 181.36 83.77 175.46 75.26 168.76Z" fill="#113000" fill-opacity="1.000000" fill-rule="nonzero"/>
	<path id="Vector" d="M78.6 31.99C92.32 26.14 94.9 11.53 132.77 23.22C170.63 34.91 167.03 34.91 146.79 50.93C126.54 66.95 137.02 58.28 102.7 56.77C36.54 53.85 78.6 31.99 78.6 31.99Z" fill="#E61300" fill-opacity="1.000000" fill-rule="nonzero"/>
	<path id="Vector" d="M131.1 53.4C129.39 53.28 127.69 53.01 126.03 52.59C118.42 50.9 110.65 49.92 102.85 49.67C69.59 48.21 68.28 41.96 68.28 41.86C68.03 40.1 73.34 35.06 79.67 31.78C82.91 30.3 85.97 28.44 88.78 26.24C94.31 21.38 101.45 18.74 108.82 18.84C116.74 19.13 124.57 20.57 132.06 23.12C142.79 26.44 156 30.47 158.68 33.19C155.75 36.36 152.49 39.21 148.96 41.71L145.32 44.53C136.66 51.38 133.93 53.4 131.1 53.4Z" fill="#F4493A" fill-opacity="1.000000" fill-rule="nonzero"/>
	<g opacity="0.300000">
		<path id="Vector" d="M94.55 47.5C103.56 37.2 114.11 28.35 125.83 21.25C121.94 20.26 117.98 19.54 113.99 19.09C102.36 27.56 92.47 38.18 84.88 50.37C83.92 51.83 83.06 53.35 82.2 54.86L87.92 55.71C90.04 52.79 92.27 50.07 94.55 47.5Z" fill="#FFFFFF" fill-opacity="1.000000" fill-rule="nonzero"/>
		<path id="Vector" d="M80.98 38.38C85.19 33.07 89.72 28.03 94.55 23.27L97.23 20.95C91.99 23.56 87 26.66 82.35 30.22C80.88 31.98 79.41 33.75 78.05 35.56C74.43 40.24 71.05 45.1 67.92 50.12C68.96 50.87 70.08 51.49 71.26 51.99C74.45 47.15 77.64 42.66 80.98 38.38Z" fill="#FFFFFF" fill-opacity="1.000000" fill-rule="nonzero"/>
		<path id="Vector" d="M146.79 50.93C152.1 46.7 156.2 43.62 158.78 41.1C146.26 44.65 134.69 50.93 124.92 59.49C133.58 61.3 133.47 61.61 146.79 50.93Z" fill="#FFFFFF" fill-opacity="1.000000" fill-rule="nonzero"/>
		<path id="Vector" d="M145.27 27.15C129.81 33.82 116.13 44 105.33 56.87L110.04 57.22C122.03 45.08 136.54 35.69 152.56 29.72L145.27 27.15Z" fill="#FFFFFF" fill-opacity="1.000000" fill-rule="nonzero"/>
	</g>
	<path id="Vector" d="M132 76.07C132 75.06 130.94 74 129.27 73.7C127.6 73.4 126.03 74 125.88 75.01C125.73 76.02 126.94 77.07 128.61 77.38C130.28 77.68 131.6 77.07 132 76.07Z" fill="#E3E1BA" fill-opacity="1.000000" fill-rule="nonzero"/>
	<path id="Vector" d="M141.73 15.11C141.73 14.1 140.66 13.04 138.99 12.74C137.32 12.44 135.8 12.74 135.6 14.05C135.4 15.36 136.66 16.12 138.33 16.42C140 16.72 141.73 16.17 141.73 15.11Z" fill="#E3E1BA" fill-opacity="1.000000" fill-rule="nonzero"/>
	<path id="Vector" d="M97.23 74.2C97.23 73.14 96.12 71.98 94.3 71.68C92.48 71.38 90.91 71.98 90.7 73.04C90.5 74.1 91.82 75.26 93.64 75.56C95.46 75.86 97.03 75.26 97.23 74.2Z" fill="#E3E1BA" fill-opacity="1.000000" fill-rule="nonzero"/>
	<path id="Vector" d="M93.94 13.14C93.94 12.09 92.83 10.98 91.01 10.62C89.18 10.27 87.61 10.93 87.41 12.04C87.21 13.14 88.53 14.2 90.35 14.55C92.17 14.91 93.74 14.25 93.94 13.14Z" fill="#E3E1BA" fill-opacity="1.000000" fill-rule="nonzero"/>
	<path id="Vector" d="M201.45 29.72C201.45 28.91 200.64 28.06 199.33 27.85C198.01 27.65 196.8 27.85 196.7 28.86C196.6 29.87 197.51 30.47 198.82 30.73C200.14 30.98 201.35 30.47 201.45 29.72Z" fill="#E3E1BA" fill-opacity="1.000000" fill-rule="nonzero"/>
	<path id="Vector" d="M170.37 24.33C170.63 22.97 168.91 21.46 166.58 21.05C164.25 20.65 162.12 21.46 161.87 22.87C161.62 24.28 163.29 25.74 165.67 26.14C168.05 26.54 170.12 25.74 170.37 24.33Z" fill="#E3E1BA" fill-opacity="1.000000" fill-rule="nonzero"/>
	<path id="Vector" d="M56.84 61.2C56.84 59.79 55.42 58.33 53.04 57.93C50.66 57.53 48.59 58.33 48.33 59.69C48.08 61.05 49.8 62.61 52.18 63.02C54.56 63.42 56.64 62.61 56.84 61.2Z" fill="#E3E1BA" fill-opacity="1.000000" fill-rule="nonzero"/>
	<path id="Vector" d="M65.44 27C65.7 25.59 63.98 24.13 61.6 23.72C59.22 23.32 57.14 24.13 56.89 25.49C56.64 26.85 58.36 28.41 60.74 28.81C63.11 29.21 65.19 28.41 65.44 27Z" fill="#E3E1BA" fill-opacity="1.000000" fill-rule="nonzero"/>
	<path id="Vector" d="M164.55 63.47C164.81 61.81 162.83 60.1 160.05 59.59C157.27 59.09 154.99 60.05 154.53 61.71C154.08 63.37 156.25 65.08 158.99 65.54C161.72 65.99 164.25 65.08 164.55 63.47Z" fill="#E3E1BA" fill-opacity="1.000000" fill-rule="nonzero"/>
	<path id="Vector" d="M191.58 45.59C191.58 44.23 190.17 42.77 187.84 42.31C185.51 41.86 183.38 42.72 183.13 44.13C182.88 45.54 184.6 46.95 186.93 47.35C189.26 47.75 191.33 47 191.58 45.59Z" fill="#E3E1BA" fill-opacity="1.000000" fill-rule="nonzero"/>
	<path id="Vector" d="M34.26 31.73C34.26 30.93 33.45 30.07 32.09 29.87C30.72 29.67 29.61 29.87 29.45 30.88C29.3 31.88 30.26 32.49 31.58 32.74C32.9 32.99 34.11 32.49 34.26 31.73Z" fill="#E3E1BA" fill-opacity="1.000000" fill-rule="nonzero"/>
	<path id="Vector" d="M24.34 47.6C24.6 46.24 22.92 44.78 20.6 44.38C18.27 43.98 16.19 44.73 15.94 46.14C15.69 47.55 17.36 48.96 19.69 49.37C22.01 49.77 24.14 49.01 24.34 47.6Z" fill="#E3E1BA" fill-opacity="1.000000" fill-rule="nonzero"/>
	<g opacity="0.300000">
		<path id="Vector" d="M20.85 197.58C13.91 198.23 12.6 149.52 10.47 127.81C8.35 106.09 5.06 78.84 11.94 78.18C18.83 77.53 9.76 105.74 14.67 128.56C22.47 165.29 27.79 196.87 20.85 197.58Z" fill="#FFFFFF" fill-opacity="1.000000" fill-rule="nonzero"/>
	</g>
</svg>
